<svg id="Layer_1" data-name="Layer 1" xmlns="http://www.w3.org/2000/svg" viewBox="0 0 128 26.92"><title>Artboard 1</title><path d="M13.2,23.74H5.32L5.38,7.5h3.2l0,13.18h4.67a6.67,6.67,0,0,0,3.87-1.17c1.62-1.2,2.45-3.27,2.46-6.16,0-4.72-2.23-7.29-6.28-7.3H5.9C3.76,6,2.67,3.74,2.63,3.64L2.33,3,13.27,3C19.14,3,22.78,7,22.79,13.28v.08c0,6.4-3.69,10.38-9.59,10.39m15.21,0H25.23L25.3,3h3.18Zm17.75-20c0,.1-1.13,2.39-3.26,2.38H38.36a2.84,2.84,0,0,0-3.21,3v2.8h9.6l-.29.62c0,.1-1.13,2.39-3.26,2.39H35.13l0,8.8H31.92L32,9.39c0-3.9,2.47-6.32,6.41-6.31h8.09Zm14.51,0c0,.1-1.13,2.38-3.24,2.38H52.9a2.84,2.84,0,0,0-3.2,3v2.79h9.63l-.29.63c0,.1-1.13,2.38-3.25,2.38H49.68l0,8.78H46.47L46.52,9.4c0-3.89,2.46-6.31,6.39-6.3H61ZM75.32,23.61H75l-9.53.1v0l-3.87,0,.07-20.6H66L72.71,3h.17C75,3,76.07,5.3,76.12,5.39l.3.63h-2l-9.61.07,0,5.32H75l-.29.64c0,.1-1.12,2.38-3.23,2.38H64.8l0,6.18h4.38l3.57,0h.17c2.11,0,3.19,2.25,3.24,2.34l.3.63H75.32Zm19-5.17,0,6.09-.64-.29c-.1,0-2.45-1.14-2.45-3.29V18.47c0-1.8-.93-2.63-2.91-2.63H82.14l0,7.84H79L79,8.1h3.14v4.7h6.12a3.73,3.73,0,0,0,2.61-.9,3.21,3.21,0,0,0,1-2.41c0-2.23-1.22-3.34-3.63-3.34H86l-6.42,0-.16,0a3.23,3.23,0,0,1-1.71-1,5.15,5.15,0,0,1-.95-1.38l-.29-.63h0l11.7,0C92.33,3.15,95,5.63,95,9.46a5.76,5.76,0,0,1-2.45,4.85,4.88,4.88,0,0,1,1.79,4.13m6.53,5.24H97.73L97.8,3.16h3.13Zm19.89,0h-3.21L107.48,8.36l-.05,15.31H104.3l.07-20.5h3.25l10.06,15.28,0-15.26h3.09Z" style="fill:#0033a0"/><path d="M126,7.11a2.17,2.17,0,0,1-3.69-1.56A2.07,2.07,0,0,1,123,4a2.13,2.13,0,0,1,1.49-.59,2.17,2.17,0,0,1,2.17,2.17A2.09,2.09,0,0,1,126,7.11Zm-2.8-2.82a1.8,1.8,0,0,0,0,2.54,1.78,1.78,0,0,0,2.53,0,1.76,1.76,0,0,0,.52-1.28,1.74,1.74,0,0,0-.52-1.26,1.76,1.76,0,0,0-2.54,0Zm.32,2.47V4.35h1.17a1.16,1.16,0,0,1,.47.12.61.61,0,0,1,.32.57.53.53,0,0,1-.17.44.79.79,0,0,1-.42.16.82.82,0,0,1,.34.14.65.65,0,0,1,.21.54v.22a.53.53,0,0,0,0,.07.35.35,0,0,0,0,.07l0,.07h-.6a1.76,1.76,0,0,1,0-.33,1.11,1.11,0,0,0,0-.29.29.29,0,0,0-.18-.18.71.71,0,0,0-.22,0h-.27v.85Zm1.15-1.93a1.05,1.05,0,0,0-.37-.05h-.15v.7h.24a.59.59,0,0,0,.34-.09.33.33,0,0,0,.12-.29A.28.28,0,0,0,124.69,4.82Z" style="fill:#0033a0"/></svg>