<?xml version="1.0" encoding="utf-8"?>
<!-- Generator: Adobe Illustrator 23.0.0, SVG Export Plug-In . SVG Version: 6.00 Build 0)  -->
<svg version="1.1" id="Layer_1" xmlns="http://www.w3.org/2000/svg" xmlns:xlink="http://www.w3.org/1999/xlink" x="0px" y="0px"
	 viewBox="0 0 612 792" style="enable-background:new 0 0 612 792;" xml:space="preserve">
<style type="text/css">
	.st0{fill:#FFFFFF;}
	.st1{fill:#96C121;}
</style>
<g>
	<g>
		<path d="M162.2,193.7c0,0,144.3-26.2,281,0v-89.1c0,0,7.1-91.8-140.5-91.8S162.2,97,162.2,97V193.7z"/>
		<path d="M518.8,235.6c0,0,0-32.8-34.3-40.7c-34.3-7.9-78.2,15.9-97.7,26.4c-21,11.3-80.1,13.1-84.3,13.2
			c-3.6-0.3-63.9-4-83.4-13.2c-20.1-9.5-63.4-34.3-97.7-26.4C87,202.8,87,235.6,87,235.6s-3.2,39.7,80.3,51c0,0,19.8,2.2,46.7-3.4
			c23.8-4.9,85.3-6.1,88.9-6.1c3.6,0.1,65.1,1.2,88.9,6.1c26.9,5.5,46.7,3.4,46.7,3.4C522,275.3,518.8,235.6,518.8,235.6z"/>
		<g>
			<path class="st0" d="M238,37c0.2,0.8-2,1.9-5.8,3.6c-3.8,1.7-9.2,4.2-15.2,8.1c-3,2-6.1,4.4-9.1,7.2c-3,2.9-5.9,6.2-8.5,10
				c-5.3,7.6-9.4,17.2-11.6,27.8c-0.5,2.6-0.9,5.3-1.2,7.9c-0.1,1.3-0.2,2.6-0.2,3.7c0,1.4,0,2.8,0,4.1c-0.1,5.5-0.2,10.7-0.3,15.7
				c-0.3,10-0.7,19.1-1.2,26.7c-1,15.2-2.4,24.6-4,24.6c-1.5,0-2.9-9.4-4-24.6c-0.5-7.6-0.9-16.6-1.2-26.7c-0.1-5-0.3-10.3-0.3-15.7
				c0-1.4,0-2.7,0-4.1c0-1.7,0.1-3.2,0.2-4.7c0.3-3,0.7-6.1,1.3-9.1c2.5-12.1,7.5-23.2,14.2-31.7c3.3-4.3,7-7.9,10.8-10.9
				c3.8-2.9,7.6-5.2,11.2-7c7.3-3.5,13.6-4.9,18-5.4C235.4,35.9,237.9,36.2,238,37z"/>
		</g>
		<g>
			<path class="st0" d="M462.3,210.5c0.1,0.4-4.5,1.3-12.3,4c-7.8,2.7-19,7.3-31.6,15.1c-3.1,2-6.4,4.1-9.6,6.5
				c-1.6,1.2-3.4,2.3-5.3,3.5c-0.9,0.6-1.9,1.2-2.8,1.8c-1,0.5-2,1-3,1.5c-8.1,4.1-17.2,7.2-27,9.4c-9.8,2.2-20.2,3.8-31,4.8
				c-5.4,0.5-10.9,0.8-16.5,1.1c-2.8,0.1-5.6,0.2-8.5,0.2c-1.4,0-2.9,0-4.3,0l-2.2,0c-0.4,0-1.2,0.1-1.9,0.1
				c-23.1,1-45.1-0.9-64.7-5.5c-9.8-2.3-18.9-5.4-26.9-9.6c-4-2-7.6-4-11.3-5.8c-3.6-1.8-7.2-3.5-10.5-5
				c-13.6-6.1-24.9-10.2-32.8-12.8c-7.9-2.6-12.4-3.9-12.3-4.3c0.1-0.4,4.7,0.1,12.9,2.2c8.2,2,19.9,5.6,33.8,11.3
				c3.5,1.5,7.1,3,10.8,4.8c3.7,1.6,7.6,3.8,11.5,5.5c7.7,3.8,16.5,6.6,26,8.8c19,4.2,40.7,5.9,63.2,4.9c0.7,0,1.3-0.1,2.4-0.1
				l2.1,0c1.4,0,2.8,0,4.2,0c2.8,0,5.6-0.1,8.3-0.2c5.5-0.2,10.9-0.5,16.2-0.9c10.6-0.9,20.8-2.3,30.4-4.3c9.5-2,18.4-4.8,26.1-8.5
				c1-0.5,1.9-0.9,2.9-1.4c0.9-0.5,1.8-1.1,2.6-1.6c1.7-1.1,3.5-2.1,5.2-3.3c3.4-2.3,6.8-4.4,10.1-6.3c13.2-7.5,24.8-11.6,33-13.7
				C457.6,210.2,462.3,210.1,462.3,210.5z"/>
		</g>
		<polygon points="171.2,203.2 192.4,213.2 230.3,213.2 210.4,207.8 237.5,204.4 207,202.4 232.7,196 		"/>
		<polygon points="437.8,203.2 416.5,213.2 378.6,213.2 398.6,207.8 371.4,204.4 402,202.4 376.2,196 		"/>
	</g>
	<g>
		<path class="st0" d="M158.2,262.3l5.3,95.5l20.4,64.5c0,0,29,46,30.3,49s57.6,41.7,57.6,41.7l36,2.6l57-20.9l42.9-48
			c0,0,25.1-47.2,25.5-50.5c0.4-3.3,15.1-82.2,15.1-82.2v-51.7l-5.8-3.8l-84.3,12.3l-55.5,6.4c0,0-55.3-6.9-58-6.9
			c-2.7,0-79.8-11.7-79.8-11.7L158.2,262.3z"/>
		<g>
			<path d="M455.7,252.9l-0.3-11.4l-10.5,4.4c-0.6,0.2-59.2,24-141.9,24.2c-82.7-0.3-141.3-24-141.9-24.2l-10.5-4.4l-0.3,11.4
				c-3.4,105.8,17.7,182.9,62.6,229.3c40,41.3,85.1,42.6,90.1,42.6l0.1,0l0.1,0c5,0,50.1-1.2,90.1-42.6
				C438,435.9,459,358.7,455.7,252.9z M381.8,471.2c-33.7,34.8-71.5,37.6-78.9,37.7c-7.4-0.2-45.2-2.9-78.9-37.7
				c-40.3-41.6-59.9-111.2-58.4-206.9c20.9,7.1,70.7,21.2,136.2,21.5v0c0.4,0,0.7,0,1.1,0c0.4,0,0.7,0,1.1,0v0
				c65.5-0.3,115.3-14.5,136.2-21.5C441.7,360.1,422.1,429.6,381.8,471.2z"/>
			<path d="M303.9,447.8c14.6,20.1,60.6,18.1,60.6,18.1c89.2-0.4,86.5-50.7,86.5-50.7c-11.3,18.1-37.3,7.4-37.3,7.4
				c-16.7-7.7-50.8-22.4-50.8-22.4c-33-13-59,10.2-59,10.2l-2.1,0c0,0-26-23.2-58.9-10.2c0,0-34.1,14.8-50.9,22.4
				c0,0-26,10.6-37.3-7.5c0,0-2.7,50.3,86.5,50.8c0,0,46,2,60.6-18.1L303.9,447.8z"/>
		</g>
		<path d="M303,498.4c-2.8,0-5.7-0.3-8.6-1c-7.7-1.8-13-5.4-13.2-5.5c-1.5-1-1.9-3.1-0.9-4.6c1-1.5,3.1-1.9,4.6-0.8
			c0.7,0.5,17.9,11.9,34.3,0.1c1.5-1.1,3.6-0.7,4.6,0.7c1.1,1.5,0.8,3.6-0.7,4.6C317.1,496.2,310.2,498.4,303,498.4z"/>
		<path d="M275.3,333.5c-2.7-1.9-5.7-3.5-8.6-5c-3-1.5-6.1-2.8-9.2-4c-3.2-1.2-6.4-2.1-9.7-2.9c-3.3-0.8-6.7-1.3-10.1-1.7
			c-3.4-0.3-6.9-0.7-10.4-0.7c-3.5,0-7.1,0.6-10.4,1.8c-3.2,1.2-6.3,2.7-9.1,4.7c-0.4-0.1-0.8-0.1-1.1-0.2c-0.5,0-0.9-0.1-1.5-0.1
			c-0.9-0.1-1.9,0-2.8,0c-1.9,0.1-3.7,0.4-5.5,0.8c-1.8,0.4-3.6,1.1-5.2,1.9c-1.6,0.8-3.1,1.9-4.4,3.1c3.1-1.5,6.6-2,9.8-1.7
			c1,0.1,1.9,0.2,2.9,0.4c-1.1,0.8-2.2,1.7-3.3,2.6c-1.3,1.1-2.6,2.3-3.7,3.6c-1.1,1.3-2.2,2.8-2.6,4.4c0.9-1.4,2.2-2.3,3.6-3.1
			c1.4-0.8,2.9-1.5,4.4-2c1.5-0.6,3-1.1,4.5-1.5c2.6-0.5,5.1-1.1,7.5-1.6c3.1-0.6,6.1-1.2,9-1.7c3-0.5,5.9-1,8.9-1.6
			c3-0.6,6-1.1,9.2-1.2c3.1-0.1,6.2,0,9.4,0.3c3.1,0.2,6.3,0.6,9.5,1.2c3.1,0.6,6.3,1.3,9.4,2.1c1.6,0.4,3.1,0.9,4.7,1.4
			c1.5,0.5,3.1,1,4.6,1.6l0,0c0.2,0.1,0.4,0,0.6-0.2C275.6,334,275.5,333.7,275.3,333.5z"/>
		<path d="M197.1,313.6c4-4.1,8.6-7.5,13.6-10.6c2.5-1.5,5.1-2.9,7.8-4.1c2.7-1.2,5.5-2.2,8.3-3.1c2.9-0.8,5.7-1.8,8.8-2.5
			c3-0.7,6.1-0.7,9.2-0.2c3,0.5,6,1.5,8.8,2.9c2.8,1.5,5.4,3.3,7.5,6c0.3,0.3,0.2,0.8-0.2,1.1c-0.1,0.1-0.2,0.1-0.2,0.1l0,0
			c-3.2,1-6,1.5-8.7,2c-2.7,0.5-5.3,0.8-7.7,1.1c-2.5,0.3-5,0.3-7.5,0.1c-2.5-0.2-5.1-0.4-7.7-0.1c-2.6,0.3-5.2,0.6-7.8,1.1
			c-2.6,0.5-5.2,1.1-7.8,1.8c-2.6,0.7-5.2,1.5-7.8,2.4c-1.3,0.5-2.6,1-3.8,1.5c-1.3,0.5-2.6,1.1-3.8,1.7l0,0c-0.4,0.2-0.7,0-0.9-0.3
			C196.9,314.1,196.9,313.8,197.1,313.6z"/>
		<g>
			<path d="M357.8,378.2c-23.9-6.2-38.3-30.8-32-54.7c6.2-23.9,30.8-38.3,54.7-32.1c23.9,6.2,38.3,30.8,32.1,54.7
				C406.2,370.1,381.7,384.4,357.8,378.2z M378.4,299.3c-19.6-5.1-39.7,6.7-44.8,26.2c-5.1,19.6,6.7,39.7,26.3,44.8
				c19.6,5.1,39.7-6.7,44.8-26.2C409.7,324.6,398,304.4,378.4,299.3z"/>
			<path d="M415,354.3c-5.2-1.4-8.2-6.6-6.9-11.8c1.4-5.1,6.6-8.2,11.8-6.9c5.2,1.3,8.3,6.6,6.9,11.8
				C425.4,352.6,420.1,355.7,415,354.3z M418.8,340c-2.8-0.8-5.7,0.9-6.4,3.7c-0.7,2.8,0.9,5.6,3.7,6.4c2.8,0.7,5.6-1,6.4-3.7
				C423.2,343.5,421.5,340.7,418.8,340z"/>
			<polygon points="332.4,349 359.1,334.1 334.7,352.5 			"/>
			<polygon points="335.8,356.2 352.6,347 338.2,359.6 			"/>
			<polygon points="404.8,319.3 378.1,334.3 402.5,315.9 			"/>
			<polygon points="401.4,312.1 384.5,321.3 399,308.7 			"/>
		</g>
	</g>
	<g>
		<g>
			<path d="M184.3,649.2c-5.8-11.8-2.9-23.4,0.9-30.7l-2.6-7.1c-5-13.4,3-26,5.5-29.5l3.5-10.3c6.4-19,20.7-26.9,29.5-30.1
				c-0.3-0.6-0.5-1-0.6-1.3l-2.9-7.1l6.2-4.5c34.7-24.9,64.5-13.4,75.6-3.7l2.7,2.5l0.7,1.1c1,1.6,24.9,39.6,4.3,74l-4.3,7.1
				l-7.7-3.1c-0.3-0.1-0.8-0.3-1.5-0.7c-1.9,10.1-7.7,24.9-25.2,32.8l-11.6,5.2l0-0.2c-3.3,3-14.7,12-28.5,8.4l-6.9-1.8l0-0.6
				c-6.1,4.3-16.6,8.5-29.3,6l-2.6-0.5l-4.6-4.1L184.3,649.2z M216.9,619.1l0.4-1.8l-0.4,0.2c-3.9,1.7-10.8,5.5-13.5,8.5
				c-0.8,1.1-3.6,5.6-2.8,11c6.4-0.2,10.4-3.5,11.1-4.1C213.8,630.4,216.1,623.3,216.9,619.1z M252.7,610.3l10-27.2l8.4,27.7
				c0.1,0.2,0.1,0.4,0.2,1c4.1-6.7,4.1-13.8,4.1-14.9c-0.8-8.1-1-19.2,6.2-23.4l10.9-6.3l3.1,11.4c2.7-17.5-6-34.4-8.4-38.5
				l-0.6-0.5c-1.3-1.1-16.3-12.6-39.6-1.9l34.2,5.9l-32.4,12.6c-1,0.4-6.6,2.4-18,2.7c-1.5,0.3-7.2,1.7-12.6,6.4l28.1,5.6
				l-25.8,12.5c-7.1,3.4-14.6,7.9-16.5,9.6l-0.1,0.1c-0.4,0.5-1.5,2.1-2.4,4.2c12.6-0.5,16.4,2.9,17.8,4.2l13.5,12.3
				c1.4,1.3,5.1,4.6,6.9,18.4c2-1,3.6-2.3,4.3-3l0.2-0.2C245.9,626.8,249.8,618.3,252.7,610.3z"/>
			<path class="st1" d="M293,532.2c0,0-25.8-22.6-63.4,4.4c0,0,3.3,8.2,15.8,10.4c0,0-4.6,1.8-15.4,2.1c0,0-21.4,3-29.1,25.6
				c0,0,13.6-0.4,15.5,0c0,0-17.2,8.3-19.9,12.4c0,0-8.5,10.8-4.7,21c0,0,17.4-2.9,21.2,0.6c0,0-11.9,5.2-17.1,11.2
				c0,0-9.2,11.9-2.8,25.1l1.2,1.1c15.1,3,24.3-6.4,24.3-6.4c5.4-5.7,7.9-18.7,7.9-18.7c3.8,3.4,4.6,21.8,4.6,21.8
				c10.5,2.8,20-6.7,20-6.7c3.7-3.1,10.8-22.4,10.8-22.4c0.6,1.8,2.8,16.3,2.8,16.3c21.8-9.8,20.4-33.7,20.4-33.7
				c-1.3-12.7,1.5-14.3,1.5-14.3c3.3,12.2,12.4,15.8,12.4,15.8c17.7-29.6-4.1-63.8-4.1-63.8L293,532.2z"/>
			<path d="M280.8,573.8l-9.1,10c0,0-15.1,4.1-22.7,2.9c0,0-7-16.3,3.3-34.8c0,0,5.1,14.2,5.7,22.1l1.3,1.1
				C259.2,575.2,279,575.2,280.8,573.8z"/>
			<path d="M250.3,610.7l-20.3-3.9l-4.3-26.3c0,0-6.7,21.4-3.6,33.3C222.2,613.9,242.3,615.6,250.3,610.7z"/>
		</g>
		<g>
			<path d="M420.6,650.9l-4.6,4.1l-2.6,0.5c-12.7,2.5-23.2-1.7-29.3-6l0,0.6l-6.8,1.8c-13.8,3.6-25.2-5.4-28.5-8.4l0,0.3l-11.6-5.2
				c-17.5-7.9-23.3-22.7-25.2-32.8c-0.6,0.4-1.2,0.6-1.5,0.7l-7.7,3.1l-4.2-7.1c-20.5-34.3,3.3-72.4,4.3-74l0.7-1.1l2.8-2.5
				c11.1-9.7,40.9-21.2,75.6,3.8l6.2,4.5l-2.8,7c-0.1,0.3-0.3,0.7-0.6,1.3c8.8,3.1,23.1,11,29.6,30.1l3.5,10.3
				c2.6,3.5,10.5,16.2,5.5,29.5l-2.6,7.1c3.8,7.3,6.7,18.9,0.9,30.7L420.6,650.9z M394.1,632.9c0.7,0.6,4.7,4,11.1,4.1
				c0.8-5.4-2-10-2.7-11c-2.8-2.9-9.6-6.7-13.5-8.5l-0.5-0.2l0.4,1.8C389.7,623.3,391.9,630.4,394.1,632.9z M361.4,629l0.2,0.2
				c0.7,0.7,2.3,2,4.3,3c1.8-13.7,5.5-17.1,7-18.4l13.5-12.2c1.5-1.3,5.2-4.7,17.8-4.2c-0.9-2.1-2-3.7-2.4-4.2l-0.1-0.1
				c-1.8-1.7-9.4-6.1-16.5-9.5l-25.8-12.6l28.1-5.6c-5.4-4.7-11.2-6.1-12.6-6.4c-11.4-0.4-17-2.4-18-2.8l-32.3-12.7l34.2-5.9
				c-23.3-10.6-38.2,0.9-39.6,1.9l-0.5,0.5c-2.4,4.2-11.1,21-8.4,38.6l3.1-11.5l10.9,6.4c7.2,4.2,7.1,15.3,6.2,23.4
				c0,1.1,0,8.3,4.1,14.9c0.1-0.6,0.2-0.8,0.2-1l8.4-27.7l9.9,27.2C356,618.3,359.8,626.9,361.4,629z"/>
			<path class="st1" d="M312.8,532.2c0,0,25.9-22.6,63.4,4.5c0,0-3.4,8.3-15.8,10.4c0,0,4.6,1.8,15.4,2.1c0,0,21.4,3,29.1,25.6
				c0,0-13.7-0.4-15.5,0c0,0,17.2,8.3,19.9,12.4c0,0,8.5,10.7,4.7,21c0,0-17.4-2.9-21.3,0.5c0,0,12,5.3,17.2,11.2
				c0,0,9.2,11.8,2.7,25.1l-1.2,1.1c-15.1,3-24.3-6.4-24.3-6.4c-5.5-5.8-7.9-18.8-7.9-18.8c-3.8,3.5-4.6,21.8-4.6,21.8
				c-10.5,2.8-20-6.7-20-6.7c-3.7-3.1-10.8-22.4-10.8-22.4c-0.6,1.8-2.8,16.3-2.8,16.3c-21.8-9.9-20.4-33.7-20.4-33.7
				c1.3-12.7-1.5-14.3-1.5-14.3c-3.3,12.1-12.4,15.8-12.4,15.8c-17.7-29.6,4.2-63.8,4.2-63.8L312.8,532.2z"/>
			<path d="M325,573.7l9.1,10c0,0,15.1,4.1,22.7,2.9c0,0,7-16.3-3.3-34.8c0,0-5.1,14.2-5.7,22.2l-1.2,1.1
				C346.6,575.1,326.7,575.2,325,573.7z"/>
			<path d="M355.4,610.6l20.3-3.8l4.4-26.3c0,0,6.6,21.4,3.6,33.4C383.6,613.9,363.5,615.6,355.4,610.6z"/>
		</g>
		<g>
			<path class="st1" d="M322.1,535.9c0,12.2-9.9,22.1-22.1,22.1c-12.2,0-22.1-9.9-22.1-22.1c0-12.2,9.9-22.1,22.1-22.1
				C312.2,513.8,322.1,523.7,322.1,535.9z"/>
			<path d="M299.9,562.2c-14.4,0-26.2-11.8-26.2-26.2c0-14.4,11.7-26.2,26.2-26.2c14.4,0,26.2,11.8,26.2,26.2
				C326.1,550.4,314.4,562.1,299.9,562.2z M300,517.9c-9.9,0-18.1,8.1-18.1,18.1c0,10,8.1,18.1,18,18.1c10,0,18.1-8.1,18.1-18.1
				C318,526,309.9,517.9,300,517.9z"/>
		</g>
		<path d="M277.6,544.9c-0.5,0.1-1.2,0.2-1.8,0.4c-0.6,0.1-1.2,0.3-1.9,0.6c-1.2,0.4-2.5,0.9-3.7,1.5c-2.4,1.2-4.7,2.8-6.6,4.7
			c1.4-2.4,3.3-4.5,5.5-6.4c1.1-0.9,2.2-1.8,3.4-2.6c0.6-0.4,1.2-0.8,1.9-1.1c0.7-0.4,1.3-0.7,2.1-1l0,0c1.1-0.4,2.3,0.1,2.8,1.2
			c0.5,1.1-0.1,2.3-1.1,2.8C277.9,544.8,277.7,544.9,277.6,544.9z"/>
		<path d="M277.7,536.5c-0.5-0.1-1.2-0.1-1.9-0.2c-0.6-0.1-1.3-0.1-2,0c-1.3,0-2.6,0.1-4,0.3c-2.7,0.4-5.3,1.2-7.7,2.5
			c2-1.8,4.5-3.3,7.2-4.5c1.3-0.6,2.7-1,4.1-1.5c0.7-0.2,1.4-0.4,2.1-0.5c0.8-0.2,1.4-0.3,2.3-0.3l0,0c1.2-0.1,2.2,0.8,2.3,2
			c0.1,1.2-0.8,2.2-1.9,2.3C278.1,536.6,277.9,536.6,277.7,536.5z"/>
		<path d="M323,536.5c0.5-0.1,1.2-0.1,1.9-0.2c0.6-0.1,1.3-0.1,2,0c1.3,0,2.6,0.1,4,0.3c2.7,0.4,5.3,1.2,7.7,2.5
			c-2-1.8-4.5-3.3-7.2-4.5c-1.3-0.6-2.7-1-4.1-1.5c-0.7-0.2-1.4-0.4-2.1-0.5c-0.8-0.2-1.4-0.3-2.3-0.3l0,0c-1.2-0.1-2.2,0.8-2.3,2
			c-0.1,1.2,0.8,2.2,1.9,2.3C322.6,536.6,322.8,536.6,323,536.5z"/>
		<path d="M282.4,552.5c-0.5,0.1-1.2,0.3-1.8,0.5c-0.6,0.2-1.2,0.5-1.9,0.7c-1.2,0.5-2.4,1.1-3.5,1.9c-2.3,1.4-4.4,3.1-6.2,5.3
			c1.2-2.5,2.9-4.9,4.9-7c1-1,2.1-2,3.2-2.9c0.6-0.4,1.2-0.9,1.8-1.3c0.7-0.4,1.2-0.8,2-1.2l0.1,0c1.1-0.6,2.3-0.2,2.9,0.9
			c0.5,1,0.1,2.3-0.9,2.9C282.7,552.4,282.5,552.5,282.4,552.5z"/>
		<path d="M324,540.9c0.8,0.4,1.4,0.7,2.1,1c0.6,0.3,1.3,0.7,1.9,1.1c1.2,0.8,2.4,1.7,3.5,2.6c2.2,1.9,4.1,4,5.4,6.5
			c-1.9-2-4.2-3.5-6.6-4.7c-1.2-0.6-2.4-1.1-3.7-1.5c-0.6-0.2-1.2-0.4-1.9-0.6c-0.6-0.1-1.3-0.3-1.8-0.4c-1.2-0.1-2-1.2-1.8-2.4
			c0.2-1.2,1.2-1.9,2.4-1.8C323.6,540.7,323.8,540.8,324,540.9L324,540.9z"/>
		<path d="M319.6,548.6c0.8,0.4,1.4,0.8,2,1.2c0.6,0.4,1.2,0.9,1.8,1.3c1.1,0.9,2.3,1.9,3.2,2.9c2,2,3.7,4.4,4.9,6.9
			c-1.8-2.2-3.9-3.9-6.2-5.3c-1.2-0.7-2.4-1.3-3.6-1.9c-0.6-0.2-1.2-0.5-1.8-0.7c-0.6-0.2-1.3-0.5-1.8-0.6c-1.1-0.3-1.8-1.4-1.6-2.5
			c0.3-1.2,1.4-1.9,2.6-1.6C319.2,548.5,319.4,548.5,319.6,548.6L319.6,548.6z"/>
	</g>
</g>
<g>
	<g>
		<path d="M61.6,772c-3.3,0.5-6.4,0.7-9.4,0.7c-16.2,0-28.9-4.7-38.2-14.1C5.6,750,1.4,739.7,1.4,727.5c0-18.8,8.4-35.4,25.3-49.6
			C43,664.4,61,657.6,80.8,657.5c11.2-0.1,19.9,2.6,26,8.2c4.3,4,6.5,8.9,6.5,14.8c0,4.3-1.3,8.1-4,11.5c-2.7,3.4-6.9,5.4-12.8,5.9
			c-4.9,0.5-9.4-0.5-13.4-2.8c-2.8-1.6-4.2-3.3-4.2-4.9c0-0.6,0.4-1,1.3-1.2c0.8-0.2,2.3-0.9,4.3-1.9c3.6-2.4,5.7-5.9,6.1-10.5
			c0.4-2.9-0.4-5.5-2.4-7.8c-1.9-2.3-4.5-3.5-7.6-3.8c-6.5-0.5-12.9,1.9-19.2,7c-8.7,7.2-15.2,14.9-19.5,23
			c-5.5,10.2-8.3,20.8-8.3,31.8c0,8.7,2,15.9,6.2,21.6c5.7,8.1,13.2,12.2,22.6,12.2c9.2,0.1,17.5-2.7,25.1-8.5
			c1.7-1.7,3.5-3.5,5.5-5.4c2-1.9,4.1-2.4,6.2-1.7c1.3,0.3,2,1.1,2,2.3c0,2-2.1,5-6.2,9.1C86.6,765.3,75.4,770.4,61.6,772z"/>
	</g>
	<g>
		<path d="M101.6,706.6l-9.2,25c-0.2,0.4-0.3,0.8-0.3,1c0,0.8,0.6,1.2,1.7,1.2c0.5,0,1.2-0.1,2.2-0.4c1-0.3,1.7-0.4,2.1-0.4
			c1.3,0,1.9,0.6,1.9,1.8c0,0.8-0.3,1.4-1,1.8c-7.1,3.9-13.1,5.8-18.1,5.8c-4.5,0-6.8-2.1-6.8-6.2c0-1.1,0.3-2.4,0.9-3.7l9.1-21.4
			c0.1-0.1,0.2-0.6,0.5-1.5c0.3-0.9,0.4-1.7,0.4-2.4c0-1.1-0.4-1.9-1.2-2.5c-0.8-0.6-1.2-1.2-1.2-2c0-1.3,1-2,3-2H97
			c3.4,0,5.1,1.2,5.1,3.5C102.1,704.9,101.9,705.7,101.6,706.6z M103.8,692.1c0,1.7-0.9,3-2.8,4c-1.5,0.8-3.2,1.1-5,1.1h-0.3h-0.4
			c-2,0-3.8-0.5-5.5-1.4c-2.1-1.1-3.2-2.6-3.2-4.4v-0.3c0-1.7,0.9-3,2.8-3.9c1.5-0.8,3.2-1.1,5-1.1h0.2h0.4c2.1,0,4,0.4,5.7,1.3
			c2.1,1.1,3.1,2.5,3.1,4.4V692.1z"/>
		<path d="M139.1,701.8c0,0.3-0.1,0.6-0.3,1c-2.2,4.2-5.8,6.6-11.1,7.2c-5.4,13.2-8.1,20.7-8.1,22.5c0,1.3,1,1.9,2.9,1.9
			c1.1,0,2.6-0.3,4.4-0.8c0.4-0.1,0.7-0.1,1-0.1c1.3,0,1.9,0.6,1.9,1.7c0,0.8-0.3,1.4-1,1.8c-2,1.1-5,2.2-8.9,3.4
			c-4.5,1.4-8.2,2.1-11,2.1c-4.5,0-6.8-2-6.8-5.9c0-1.3,0.3-2.6,0.9-4.1l8.9-22.6h-3.7c-1,0-1.4-0.3-1.4-1c0-0.2,0.1-0.5,0.3-1
			c1-4,3.8-6.4,8.3-7.1l3.3-10c0.2-0.4,0.3-0.9,0.3-1.2c0-1.2-0.5-2-1.6-2.3c-0.8-0.3-1.2-0.9-1.2-1.8c0-1.5,1.2-2.2,3.7-2.2h7.7
			c4.5,0,6.8,2.3,6.8,6.8c0,1.1-0.2,2.3-0.6,3.5c-0.5,1.8-1.3,4.2-2.3,7.2h6.1C138.6,700.7,139.1,701.1,139.1,701.8z"/>
		<path d="M160.7,706.6l-9.2,25c-0.2,0.4-0.3,0.8-0.3,1c0,0.8,0.6,1.2,1.7,1.2c0.5,0,1.2-0.1,2.2-0.4c1-0.3,1.7-0.4,2.1-0.4
			c1.3,0,1.9,0.6,1.9,1.8c0,0.8-0.3,1.4-1,1.8c-7.1,3.9-13.1,5.8-18.1,5.8c-4.5,0-6.8-2.1-6.8-6.2c0-1.1,0.3-2.4,0.9-3.7l9.1-21.4
			c0.1-0.1,0.2-0.6,0.5-1.5c0.3-0.9,0.4-1.7,0.4-2.4c0-1.1-0.4-1.9-1.2-2.5c-0.8-0.6-1.2-1.2-1.2-2c0-1.3,1-2,3-2h11.5
			c3.4,0,5.1,1.2,5.1,3.5C161.2,704.9,161,705.7,160.7,706.6z M162.9,692.1c0,1.7-0.9,3-2.8,4c-1.5,0.8-3.2,1.1-5.1,1.1h-0.3h-0.4
			c-2,0-3.8-0.5-5.5-1.4c-2.1-1.1-3.2-2.6-3.2-4.4v-0.3c0-1.7,0.9-3,2.8-3.9c1.5-0.8,3.2-1.1,5-1.1h0.2h0.4c2.1,0,4,0.4,5.7,1.3
			c2.1,1.1,3.1,2.5,3.1,4.4V692.1z"/>
		<path d="M217.1,702.3c0,0.3,0,0.5-0.1,0.7c-0.1,0.7-1.2,1.6-3.2,2.6c-4.6,2.3-10.3,6.5-17,12.6c-5.7,5.3-11.2,11-16.5,17.2
			c3.7,0.8,7.2,1.1,10.5,1.1c1.1,0,2-0.1,2.7-0.3c2.1-0.4,3.1-1.5,3.1-3.2c0-1.6-1.3-2.4-3.8-2.4c-0.1,0-0.2,0-0.3,0
			c-0.1,0-0.2,0-0.3,0c-0.8,0-1.2-0.3-1.2-1c0-0.6,0.9-1.3,2.7-2c3.1-1.2,5.7-1.8,7.6-1.8c2,0,3.7,0.5,5.1,1.5c2,1.4,3,3.3,3,5.6
			c0,1.9-0.7,3.5-2.2,5c-3.2,3.3-9.5,4.9-19.1,4.9c1,0-3.5-0.1-13.2-0.4c-4.6-0.1-8-0.2-10.3-0.2c-0.8,0-2.7,0.2-5.7,0.7
			c-1.3,0-1.9-0.6-1.9-1.8c0-0.6,0.2-1.1,0.6-1.6c4.1-5.4,9.5-11.3,16.1-17.5c6.9-6.6,13.1-11.6,18.4-14.9c-3.6-0.6-6.6-1-9.1-1
			c-5.3,0-8,1.4-8,4.1c0,1,0.8,1.6,2.4,1.6c0.2,0,0.5,0,0.9,0c0.4,0,0.6,0,0.8,0c0.8,0,1.2,0.4,1.2,1.1c0,0.4-0.3,0.7-1,1.2
			c-2.3,1.4-5,2.1-8,2.1c-5.1,0-7.7-2.2-7.7-6.7c0-6.8,7.5-10.2,22.5-10.2c2.6,0,9.3,0.4,20.1,1.3c3.1,0.3,6.2,0.4,9.1,0.4
			C216.5,700.7,217.1,701.3,217.1,702.3z"/>
		<path d="M256.5,710.7c0,6.9-3.4,11.5-10.1,14c-4.2,1.5-10.5,2.3-18.8,2.3c-0.1,0.6-0.2,1.3-0.2,1.9c0,4.2,3.2,6.3,9.6,6.3
			c3.7,0,7.1-0.5,10.1-1.4c0.8-0.3,1.3-0.4,1.5-0.4c0.6,0,1,0.4,1,1.2c0,0.6-0.4,1.3-1.3,2.2c-3.8,3.7-10.1,5.6-18.9,5.6
			c-5.3,0-9.7-1-13-3.1c-3.9-2.3-5.8-5.9-5.8-10.6c0-6.6,3-13,9.1-19.2c6.4-6.5,13.5-9.8,21.3-9.8c3.9,0,7.3,0.8,10.2,2.5
			C254.8,704.4,256.5,707.2,256.5,710.7z M241.4,710.3c0-1.5-0.6-2.3-1.8-2.3c-2,0-4.2,1.9-6.7,5.6c-2.3,3.4-3.6,6.1-3.8,8.2
			C237.3,721.6,241.4,717.8,241.4,710.3z"/>
		<path d="M305.9,706.5c0,2.8-1.3,7.3-4,13.4c-2.7,6.1-4,10-4,11.6c0,1.5,0.7,2.3,2.1,2.3c0.4,0,1.1-0.1,1.9-0.3
			c0.8-0.2,1.4-0.3,1.9-0.3c1.2,0,1.8,0.4,1.8,1.3c0,1.4-2.2,3.1-6.7,5c-4.4,1.9-8.5,2.9-12.2,2.9c-4.7,0-7.1-1.8-7.1-5.3
			c0-2.5,1.6-7.4,4.7-14.9c3.1-7.5,4.7-11.5,4.7-12.2c0-1.3-1.1-1.9-3.2-1.9c-1.8,0-3.2,0.3-4.1,0.9c-2.2,5.8-6.3,16.4-12.3,31.8
			c-0.4,1.1-1.2,1.7-2.4,1.7h-11.8c-1.3,0-2-0.5-2-1.4c0-0.3,0.1-0.7,0.2-1l11-28.3c0.6-2.1,1-3.5,1-4.1c0-1.1-0.3-2-1-2.9
			c-0.7-0.9-1-1.5-1-1.9c0-1.4,1.1-2.1,3.3-2.1h10.8c1.8,0,3.3,0.5,4.4,1.5c3.9-1.6,8.6-2.4,14.1-2.4
			C302.5,699.9,305.9,702.1,305.9,706.5z"/>
	</g>
	<g>
		<path d="M469.6,679.7c-0.3,0-0.7,0-1,0c-5.3,0.3-10.8,2.1-16.5,5.3c-6.5,3.7-12.1,9.6-16.6,17.4c-5.3,9.2-10.7,21-16.2,35.1
			c-4.8-4.7-10.4-8.8-16.7-12.2c3.3-9.3,6-16.3,8.1-20.6c1-2.3,2.1-4.7,3.1-7c1.2-2.8,2.5-5.1,3.8-6.8c2.6-3.6,4.7-5.7,6.3-6.3
			c2.4-1,3.5-2.1,3.5-3.2c0-1.2-1.1-1.8-3.2-1.8c-0.3,0-0.7,0-1,0l0,0c-3.6,0.5-6.7,1-9.2,1.4c-1.3,0.1-2.7,0.1-4.1,0.1
			c-0.7,0-3.6-0.1-9.6-0.3c-8.7-0.3-12-0.4-12.3-0.4c-19,0-31.5,3.8-37.1,11.4c-2.1,2.8-3.2,5.7-3.2,8.8c0,4.4,1.8,7.8,5.3,10.1
			c3,2,6.8,3,11.3,3c8.7,0,16.1-2.5,21.8-7.5l0,0c0.4-0.4,0.6-0.9,0.6-1.5c0-2.1-1.3-2.5-2.4-2.5c-0.6,0-1.5,0.1-2.7,0.4
			c-1.1,0.2-2,0.4-2.5,0.4c-4.1,0-6.1-1.1-6.1-3.3c0-3.3,2.4-5.8,7.1-7.5c4.4-1.6,10.5-2.4,18.3-2.5c-4.3,5.7-12,18.8-16.1,28.3
			c-0.9,0-1.8,0-2.6,0c-2.4,0-4.9,0.1-7.6,0.3c-8.5,0.7-15.8,2.3-22.1,4.8c-5.9,2.3-10.5,5.2-13.9,8.9c-5.1,5.4-8.1,10.9-9,16.3
			c-0.9,5.5,0.7,11.2,4.4,14.8c2.5,2.5,5.8,4.7,9.4,6.2c4.1,1.8,8.7,2.7,13.5,2.7c2.1,0,4.2-0.2,6.3-0.5c4.4-0.7,8.9-2.2,13.5-4.3
			l0.3-0.2c2.2-1.1,4.6-2.1,6.6-3.6c3.1-2.3,5.6-5.4,7.2-7.5c4.2-5.7,7.8-12.6,10.7-20.7l0-0.1c0.2-0.4,0.3-0.8,0.5-1.2
			c1.3,1.2,2.5,2.4,3.6,3.6c3.7,4.4,5.7,9.6,5.8,15.6c0.1,7.8-2,14.1-6.2,18.9l-0.5,0.6H421c6.6,0,11.2-4,13.5-11.8
			c4.6-13.1,8.1-22.7,10.7-29.4c5-12.8,8.9-22.4,11.7-28.6c2.7-6.1,4.7-10.1,6-11.8c2.6-3.5,4.7-5.7,6.3-6.3c2.4-1,3.5-2.1,3.5-3.2
			C472.8,680.3,471.7,679.7,469.6,679.7z M379.5,725.4c-2.4,8.4-6.9,16.6-11,23.7l0,0c0,0,0,0,0,0c-0.9,1.6-1.8,3-2.6,4.2l-0.1,0.1
			c-0.8,1.2-1.7,2.5-2.8,3.5c-1.6,1.4-4.2,3.1-7.2,3.1c-0.2,0-0.3,0-0.5,0c-2.6-0.2-5.2-1.7-7.3-4.1c-1.8-2.2-2.1-5-2.1-6.8
			c0.1-4.9,2.5-9.9,6.5-13.6c3.6-3.3,8.4-5.9,14.5-7.8C370.8,726.4,375,725.7,379.5,725.4z"/>
		<g>
			<path d="M507.2,715.4c0,3.9-1,8-3.1,12.1c-3,5.9-7.3,10.5-12.9,13.9c-5.6,3.4-11.8,5-18.4,5c-10.2,0-15.3-4.7-15.3-14
				c0-8.8,3.3-16.3,9.9-22.6c6.6-6.3,14.4-9.4,23.2-9.4c5,0,9,1.2,11.9,3.7C505.6,706.8,507.2,710.6,507.2,715.4z M491.1,711.3
				c0-2.4-0.6-3.6-1.8-3.6c-1.7,0-3.8,1.4-6.3,4.3c-2.5,2.9-4.7,6.6-6.6,11.1c-2,4.7-3,8.8-3,12.4c0,2.4,0.8,3.6,2.4,3.6
				c3.8,0,7.7-4.5,11.7-13.6C489.9,720,491.1,715.3,491.1,711.3z"/>
			<path d="M557.7,716c0,8-3.1,15-9.4,21c-6.3,6.1-13.4,9.1-21.3,9.1c-2,0-4-0.2-5.9-0.7l-7.8,20.5c-0.6,1.8-1.8,2.7-3.6,2.7h-12.5
				c-1.5,0-2.3-0.5-2.3-1.5c0-0.3,0.1-0.7,0.3-1.1l21-55.4c0.3-0.7,0.4-1.6,0.4-2.8c0-1.3-0.5-2.3-1.3-3c-0.6-0.5-0.9-1-0.9-1.7
				c0-1.5,1-2.3,2.9-2.3h11.3c2.8,0,4.8,0.6,6,1.8c3.4-1.8,6.6-2.7,9.6-2.7c4,0,7.3,1.5,9.8,4.4C556.4,707.3,557.7,711.2,557.7,716z
				 M541.7,714c0-3.7-1.3-5.5-3.9-5.5c-1.1,0-2.2,0.5-3.3,1.6l-11,28.5c0.8,0.2,1.6,0.3,2.4,0.3c4.5,0,8.4-3.2,11.6-9.5
				C540.3,724.1,541.7,719,541.7,714z"/>
			<path d="M612,709.1c0,5.7-5.3,8.6-15.8,8.6c-1.5-0.1-2.3-0.4-2.3-0.9c0-0.3,0.1-0.5,0.4-0.7c1.7-0.8,2.5-2.1,2.5-4
				c-0.1-3.5-2.3-5.2-6.8-5.2c-4.2,0-6.3,1.2-6.3,3.7c0,0.9,0.6,1.8,1.7,2.6c2.7,1.9,7.5,5.6,14.4,11.1c2.1,1.8,3.2,4.2,3.2,7.4
				c0,5.9-3.1,10-9.2,12.3c-4.3,1.7-9.5,2.5-15.5,2.5c-5.7,0-10.6-0.7-14.6-2.1c-5.9-2-8.8-5.3-8.8-10c0-2.8,1.2-5.2,3.5-7.2
				c2.7-2.1,6.3-3.1,10.8-3.1c1,0,1.6,0.5,1.6,1.6c0,0.1-0.5,0.8-1.4,2.1c-0.9,1.3-1.4,2.5-1.4,3.6c0,3.5,2.8,5.2,8.4,5.2
				c4.7,0,7.1-0.9,7.1-2.7c0-1.9-1.9-4.3-5.8-7.1l-8.2-6c-3.3-2.8-4.9-5.5-4.9-8c0-3.7,2.9-6.8,8.7-9.3c5.3-2.3,11.5-3.4,18.4-3.4
				C605.2,699.9,612,703,612,709.1z"/>
		</g>
	</g>
</g>
</svg>
