<?xml version="1.0" encoding="utf-8"?>
<!-- Generator: Adobe Illustrator 23.0.0, SVG Export Plug-In . SVG Version: 6.00 Build 0)  -->
<svg version="1.1" id="Layer_1" xmlns="http://www.w3.org/2000/svg" xmlns:xlink="http://www.w3.org/1999/xlink" x="0px" y="0px"
	 viewBox="0 0 1680 1024" style="enable-background:new 0 0 1680 1024;" xml:space="preserve">
<style type="text/css">
	.st0{fill:url(#SVGID_1_);}
	.st1{fill:#939598;}
</style>
<linearGradient id="SVGID_1_" gradientUnits="userSpaceOnUse" x1="859.2363" y1="111.174" x2="859.2363" y2="644.911">
	<stop  offset="0" style="stop-color:#CDDC29"/>
	<stop  offset="1" style="stop-color:#729225"/>
</linearGradient>
<path class="st0" d="M1061.9,406.2c-20.9-15-53.5-22.5-96.8-22.5c-42.6,0-85.2,7.5-104.6,11.4c-0.6-0.1-0.7,0-5.4,1.1
	c-0.9,0.2-1.7,0.4-2.5,0.6c-0.5,0.1-1,0.2-1.3,0.3c-1,0.2-1.9,0.4-2.9,0.7c-11.2,3.2-19.4,13.6-20,25.2c-0.6,11.3,5.9,22,16.2,26.7
	c6.5,3,14.4,3.3,21.1,0.7c0.9-0.3,1.7-0.7,2.3-1c26.8-11.6,58.2-17.4,93.1-17.4c10.2,0,20.6,0.5,31,1.5
	c-13.1,12.6-28.6,24.4-46.3,35c-20.5,12.3-40.5,21-59.7,26c-9.4,2.4-17.7,3.7-25.5,3.9c-8,0.2-16.5-0.7-26.3-2.8
	c-19.7-4.2-40.4-12.3-61.5-24.1c-21.5-12-39.7-25.6-54.1-40.5c-6.9-7.2-12.4-14.1-16.6-21c-4.8-7.8-7.4-14.7-8.1-21
	c-0.5-4.4,0.2-8.5,2-12.1c1.9-3.8,5.1-7.4,9.8-11c4-2.6,8.2-5,11.8-6.9c8.7-4.7,18.2-9.1,28-13.1c16.5-6.7,33.9-11.9,51.6-15.7
	c22.8-4.8,45.9-7,68.6-6.4c22.6,0.6,45.3,3.8,67.5,9.7c22.2,5.9,44.3,14.5,65.7,25.6c3.9,2,7.8,4.1,11.6,6.3
	c3.3,1.9,6.8,3.8,9.4,6.4l1.7,1.6h49.4l-1.9-7.1c-2.6-9.9-7.9-19.2-15.3-26.9c-8.5-8.8-19.4-14.6-29-19.7c-3.7-2-7.5-3.9-11.4-5.8
	c0.5-3.2,0.8-6.5,0.8-9.7c0-32.4-26.4-58.8-58.8-58.8c-23,0-43.9,13.6-53.4,34.3c-4.8-0.6-9.5-1.1-14.1-1.5
	c-23.1-2-46.9-1.6-70.2,1.2c-0.4,0-0.8,0.1-1.3,0.2c-9.5-20.5-30.4-34.1-53.3-34.1c-32.4,0-58.8,26.4-58.8,58.8
	c0,2.8,0.2,5.7,0.6,8.5c-6.9,3.4-13.1,6.8-19,10.3c-2.3,1.4-4.7,2.8-7.3,4.6l-0.7,0.5c-9.1,6.9-16.4,14.8-21.6,23.5
	c-5.1,8.6-8.3,18.4-9.2,28.2c-1.6,17.8,3.5,36.4,15.4,55.5c10.1,16.2,23.9,31.5,42.2,46.6c18.4,15.2,39.3,28.5,62,39.4
	c22.3,10.7,44.1,18,64.9,21.6c9.6,1.6,18.4,2.4,26.9,2.4c1.1,0,2.2,0,3.3,0c10.6-0.3,22-1.9,33.9-4.8c22.2-5.5,45.3-15.1,68.9-28.7
	c22.1-12.8,42-27.5,59.1-43.7c16.9-16,29-31.7,37.2-47.8C1063.1,416.8,1067.2,409.9,1061.9,406.2z M956.9,264.6
	c0,0,28.6,6.9,28.6,41c0,0-7.6-7.5-49.5-15C936,290.6,958.6,282.4,956.9,264.6z M763.5,264.6c-1.7,17.8,20.9,26,20.9,26
	c-41.9,7.6-49.5,15-49.5,15C734.8,271.5,763.5,264.6,763.5,264.6z"/>
<g>
	<path class="st1" d="M588.2,694.1v90.7c0,34.1-17.2,53.2-47.7,53.2c-16.4,0-33.9-5.1-43.4-10.6c-2-1.2-3.7-3.2-3.7-7.1
		c0-4.1,3.4-8.3,8.1-8.3c1.4,0,2.6,0.4,3.7,0.8c8.5,4.3,19.7,7.7,33.5,7.7c20.7,0,31-11.2,31-33.1v-13.6
		c-8.3,8.9-19.5,15.4-34.7,15.4c-22.5,0-49.1-16.8-49.1-52.8s26.6-52.8,49.1-52.8c15.2,0,26.4,6.5,34.7,15.4v-5.1
		c0-5.1,4.1-9.3,9.1-9.3S588.2,689,588.2,694.1z M569.7,715.6c-7.5-7.7-16.8-15-30.8-15c-19.3,0-34.5,11.6-34.5,35.9
		s15.2,35.9,34.5,35.9c14,0,23.3-7.3,30.8-15V715.6z"/>
	<path class="st1" d="M680.5,692.8c0,5.3-4.1,8.7-9.3,8.7h-1c-13.4,0-24.3,7.3-31.5,17.9v61.7c0,5.1-4.3,9.1-9.3,9.1
		c-5.1,0-9.1-4.1-9.1-9.1v-87c0-5.1,4.1-9.3,9.1-9.3c5.1,0,9.3,4.3,9.3,9.3v8.7c7.3-9.7,17.9-19.1,31.9-19.1h1
		C676.6,683.7,680.5,687.8,680.5,692.8z"/>
	<path class="st1" d="M796.3,737.5c0,32.1-20.7,53.8-51.9,53.8c-31.5,0-51.9-21.7-51.9-53.8s20.5-53.8,51.9-53.8
		C775.7,683.7,796.3,705.4,796.3,737.5z M777.9,737.3c0-26.8-18.1-36.7-33.5-36.7c-15.6,0-33.5,9.9-33.5,36.7
		c0,27,17.9,37.1,33.5,37.1C759.8,774.4,777.9,764.3,777.9,737.3z"/>
	<path class="st1" d="M910,781.3c0,5.5-3.9,8.9-9.3,8.9c-2.8,0-5.7-1.6-7.5-3.9l-34.9-47.5l-17.7,16v26.2c0,5.1-4.3,9.1-9.3,9.1
		s-9.1-4.1-9.1-9.1V649.4c0-5.1,4.1-9.3,9.1-9.3s9.3,4.3,9.3,9.3v83l48.3-44.6c1.6-1.4,3.7-2.6,6.1-2.6c6.9,0,8.9,4.9,8.9,8.9
		c0,1.6-0.6,4.1-3.4,6.9l-29.2,26.2l36.7,48.7C909.2,777.5,910,779.3,910,781.3z"/>
	<path class="st1" d="M1070.5,718.4c-0.8,42.4-28,72.8-71.2,72.8c-43.4,0-70.4-30.4-71.2-72.8c0.8-42.4,27.8-72.8,71.2-72.8
		C1042.5,645.6,1069.6,676,1070.5,718.4z M1052,718.4c0-31.2-19.3-55.6-52.8-55.6c-33.7,0-52.8,24.4-52.8,55.6s19.1,55.6,52.8,55.6
		C1032.7,774,1052,749.7,1052,718.4z"/>
	<path class="st1" d="M1117.5,649.4v131.7c0,5.1-4.1,9.1-9.3,9.1c-5.1,0-9.1-4.1-9.1-9.1V649.4c0-5.3,4.1-9.3,9.1-9.3
		C1113.5,640.1,1117.5,644.2,1117.5,649.4z"/>
	<path class="st1" d="M1232.6,723.7v57.4c0,5.1-4.3,9.1-9.3,9.1s-9.1-4.1-9.1-9.1v-5.3c-7.3,7.5-19.1,15.4-38.1,15.4
		c-17.7,0-33.1-11.4-33.1-30.4s15-32.9,46.7-32.9h24.6v-1.6c0-18.1-8.9-25.2-27.2-25.2c-11.4,0-19.5,2.4-27,4.9
		c-0.8,0.2-1.8,0.4-2.6,0.4c-4.1,0-7.5-3.2-7.5-7.7c0-3.4,1.8-6.3,5.3-7.7c9.5-4.1,20.7-7.3,35.1-7.3
		C1219.8,683.7,1232.6,703.8,1232.6,723.7z M1214.1,759.8v-17H1192c-19.1,0-30.6,4.5-30.6,16c0,8.7,5.1,16.2,21.5,16.2
		C1195.4,775,1207.2,767.7,1214.1,759.8z"/>
</g>
</svg>
