<svg id="Layer_1" data-name="Layer 1" xmlns="http://www.w3.org/2000/svg" viewBox="0 0 467.52 299.2"><defs><style>.cls-1{fill:#434141;}.cls-2{fill:#94bf3d;}.cls-3{fill:#bfbbb7;}</style></defs><title>logo</title><path class="cls-1" d="M873,464.22H753.38a8.41,8.41,0,0,0-8.21,7.55,6.81,6.81,0,0,0,6.89,7.55H871.7c4.75,0,8.93-3.4,9.29-7.55S877.77,464.22,873,464.22Z" transform="translate(-606.98 -363.15)"/><path class="cls-1" d="M840.34,489.37H750.87a8.4,8.4,0,0,0-8.21,7.55,6.81,6.81,0,0,0,6.89,7.55H839c4.75,0,8.93-3.4,9.29-7.55S845.08,489.37,840.34,489.37Z" transform="translate(-606.98 -363.15)"/><path class="cls-1" d="M897.93,438.91H756a8.4,8.4,0,0,0-8.21,7.55A6.8,6.8,0,0,0,754.7,454H896.61c4.74,0,8.92-3.4,9.29-7.55S902.67,438.91,897.93,438.91Z" transform="translate(-606.98 -363.15)"/><path class="cls-1" d="M760.07,403.56H879.71c4.75,0,8.93-3.4,9.29-7.55s-3.22-7.55-8-7.55H761.39a8.41,8.41,0,0,0-8.21,7.55A6.81,6.81,0,0,0,760.07,403.56Z" transform="translate(-606.98 -363.15)"/><path class="cls-1" d="M765.1,378.41H847c4.75,0,8.93-3.4,9.29-7.55s-3.22-7.55-8-7.55H766.42a8.41,8.41,0,0,0-8.21,7.55A6.81,6.81,0,0,0,765.1,378.41Z" transform="translate(-606.98 -363.15)"/><path class="cls-1" d="M757.43,428.87h141.9c4.75,0,8.93-3.4,9.29-7.55s-3.22-7.55-8-7.55H758.75a8.41,8.41,0,0,0-8.21,7.55A6.81,6.81,0,0,0,757.43,428.87Z" transform="translate(-606.98 -363.15)"/><circle class="cls-2" cx="304.25" cy="32.86" r="7.71"/><circle class="cls-2" cx="269.04" cy="7.71" r="7.71"/><circle class="cls-2" cx="324.16" cy="58.17" r="7.71"/><circle class="cls-2" cx="296.53" cy="108.62" r="7.71"/><path class="cls-1" d="M607,613.85V552.12h23.74a34.74,34.74,0,0,1,13.47,2.43A27.12,27.12,0,0,1,659.84,571a35.39,35.39,0,0,1,2,11.95,34.83,34.83,0,0,1-2.22,12.74,27.54,27.54,0,0,1-6.3,9.73,28.1,28.1,0,0,1-9.83,6.26,35.16,35.16,0,0,1-12.78,2.22Zm37.64-31a21.35,21.35,0,0,0-1-6.52,14.56,14.56,0,0,0-2.74-5,12.34,12.34,0,0,0-4.39-3.26,13.91,13.91,0,0,0-5.82-1.17h-6.79v32.16h6.79a13.73,13.73,0,0,0,5.91-1.22,12.41,12.41,0,0,0,4.39-3.39,15.16,15.16,0,0,0,2.69-5.12A21.75,21.75,0,0,0,644.62,582.9Z" transform="translate(-606.98 -363.15)"/><path class="cls-1" d="M713.3,599.08v14.78h-44V552.13h43.21v14.78H686.27v8.69H708.7v13.74H686.27v9.73Z" transform="translate(-606.98 -363.15)"/><path class="cls-1" d="M769.29,566.92H751.55v47H734.6v-47H716.78V552.13h52.51Z" transform="translate(-606.98 -363.15)"/><path class="cls-1" d="M819.45,599.08v14.78h-44V552.14h43.21v14.78H792.41v8.69h22.43v13.74H792.41v9.73Z" transform="translate(-606.98 -363.15)"/><path class="cls-1" d="M827.35,613.86V552.14H855.7A18.82,18.82,0,0,1,864,554a21.64,21.64,0,0,1,6.56,4.87,22.61,22.61,0,0,1,4.31,6.87,20.65,20.65,0,0,1,1.56,7.78,21.91,21.91,0,0,1-2.35,10,20.35,20.35,0,0,1-6.52,7.6l13.91,22.7H862.39l-11.74-19H844.3v19Zm17-33.73H855a3.74,3.74,0,0,0,2.91-1.73,7.79,7.79,0,0,0,1.35-4.87,7,7,0,0,0-1.56-4.91,4.38,4.38,0,0,0-3.13-1.7H844.31Z" transform="translate(-606.98 -363.15)"/><path class="cls-1" d="M933.67,613.87V581.36l-10.34,22.86h-9l-10.35-22.87v32.52H887V552.14h18.52l13.3,29,13.39-29h18.43v61.72Z" transform="translate(-606.98 -363.15)"/><path class="cls-1" d="M955.23,613.87l23-61.72H992L1015,613.88H997l-3.74-12.09H976.87l-3.65,12.08Zm29.91-44.07-5.74,20.69h11.21Z" transform="translate(-606.98 -363.15)"/><path class="cls-1" d="M1036.51,583.54v30.34h-17V552.15h13.22l24.77,31.39V552.16h17v61.72H1061Z" transform="translate(-606.98 -363.15)"/><path class="cls-3" d="M669.34,646.74a16.35,16.35,0,0,1,.95-5.43,15.08,15.08,0,0,1,2.8-4.84,14.52,14.52,0,0,1,4.49-3.48,13.42,13.42,0,0,1,6.08-1.34,12.43,12.43,0,0,1,6.9,1.85,11.41,11.41,0,0,1,4.22,4.76l-1.79,1a9.29,9.29,0,0,0-1.85-2.64,10,10,0,0,0-2.34-1.73,10.52,10.52,0,0,0-2.63-1,12.35,12.35,0,0,0-2.68-.29,10.83,10.83,0,0,0-5.12,1.17,12.36,12.36,0,0,0-3.75,3,13.2,13.2,0,0,0-2.32,4.25,14.79,14.79,0,0,0-.79,4.75,14,14,0,0,0,.94,5.11,14.4,14.4,0,0,0,2.55,4.29,12.51,12.51,0,0,0,3.84,3,10.52,10.52,0,0,0,4.77,1.11,12.45,12.45,0,0,0,2.8-.34,11.33,11.33,0,0,0,2.77-1.07,11.18,11.18,0,0,0,2.49-1.85,9.79,9.79,0,0,0,1.92-2.66l1.83.89a10.19,10.19,0,0,1-2.07,3,12.3,12.3,0,0,1-2.91,2.21,13.58,13.58,0,0,1-3.44,1.34,14.66,14.66,0,0,1-3.56.45,12,12,0,0,1-5.69-1.36,15.11,15.11,0,0,1-4.45-3.56,16.59,16.59,0,0,1-2.92-5A16,16,0,0,1,669.34,646.74Z" transform="translate(-606.98 -363.15)"/><path class="cls-3" d="M721.3,662.3a12.58,12.58,0,0,1-5.76-1.32,14.88,14.88,0,0,1-4.47-3.45,15.47,15.47,0,0,1-2.9-4.9,16.32,16.32,0,0,1-1-5.67,15.84,15.84,0,0,1,1.08-5.8,16.16,16.16,0,0,1,3-4.9,14.21,14.21,0,0,1,4.5-3.39,12.68,12.68,0,0,1,5.62-1.26A12.32,12.32,0,0,1,727.1,633a14.55,14.55,0,0,1,4.45,3.51,16.1,16.1,0,0,1,2.88,4.93,15.93,15.93,0,0,1-.07,11.4,16,16,0,0,1-3,4.88A14.38,14.38,0,0,1,726.9,661,12.57,12.57,0,0,1,721.3,662.3Zm-12-15.34a14.67,14.67,0,0,0,.87,5,13.7,13.7,0,0,0,2.48,4.26,12.31,12.31,0,0,0,3.79,3,11.1,11.1,0,0,0,9.76,0,12.4,12.4,0,0,0,3.78-3,14,14,0,0,0,2.42-4.28,14.28,14.28,0,0,0,0-9.87,13.81,13.81,0,0,0-2.49-4.26,12.23,12.23,0,0,0-3.8-3,11.08,11.08,0,0,0-9.73,0,11.91,11.91,0,0,0-3.78,3,14.45,14.45,0,0,0-2.41,4.29A14.3,14.3,0,0,0,709.32,647Z" transform="translate(-606.98 -363.15)"/><path class="cls-3" d="M752.2,635.92v26.17H750V631.83h1.66l21.23,26.64v-26.6h2.18v30.22h-2Z" transform="translate(-606.98 -363.15)"/><path class="cls-3" d="M809.32,636.86c-2-2.19-4.73-3.28-8.31-3.28-3,0-5.11.56-6.46,1.68a5.6,5.6,0,0,0-2,4.54,5.2,5.2,0,0,0,.51,2.43,4.18,4.18,0,0,0,1.6,1.64,11.33,11.33,0,0,0,2.77,1.15q1.68.5,4,1c1.64.34,3.12.72,4.43,1.13a12.78,12.78,0,0,1,3.34,1.56,6.6,6.6,0,0,1,2.14,2.3,7,7,0,0,1,.74,3.37,7.28,7.28,0,0,1-.79,3.49,7,7,0,0,1-2.21,2.5,10.43,10.43,0,0,1-3.41,1.51,17.83,17.83,0,0,1-4.42.51,17,17,0,0,1-12-4.52l1.16-1.75a13.71,13.71,0,0,0,4.69,3.18,15.82,15.82,0,0,0,6.22,1.17,11.31,11.31,0,0,0,6.2-1.45,4.87,4.87,0,0,0,2.24-4.39,4.78,4.78,0,0,0-2.34-4.35,12.48,12.48,0,0,0-3-1.31c-1.18-.37-2.56-.73-4.15-1.07s-3-.7-4.29-1.09a11.65,11.65,0,0,1-3.13-1.45,5.75,5.75,0,0,1-1.92-2.11,6.8,6.8,0,0,1-.64-3.11,8.07,8.07,0,0,1,.79-3.62,7.68,7.68,0,0,1,2.2-2.67,9.85,9.85,0,0,1,3.36-1.64,16,16,0,0,1,4.35-.55,14.82,14.82,0,0,1,5.25.87,12.42,12.42,0,0,1,4.17,2.67Z" transform="translate(-606.98 -363.15)"/><path class="cls-3" d="M838.31,660.31a10.28,10.28,0,0,0,5.09-1.15,9,9,0,0,0,3.22-3,12.54,12.54,0,0,0,1.68-4.26,23.68,23.68,0,0,0,.49-4.82V631.84H851v15.21a25,25,0,0,1-.66,5.8,14,14,0,0,1-2.15,4.88,10.71,10.71,0,0,1-3.91,3.35,12.84,12.84,0,0,1-5.9,1.23,12.57,12.57,0,0,1-6-1.3,10.87,10.87,0,0,1-3.9-3.45,14.15,14.15,0,0,1-2.09-4.88,25.56,25.56,0,0,1-.61-5.63V631.83h2.17v15.22a24,24,0,0,0,.49,4.9,12.27,12.27,0,0,0,1.68,4.24,9,9,0,0,0,3.2,3A10.15,10.15,0,0,0,838.31,660.31Z" transform="translate(-606.98 -363.15)"/><path class="cls-3" d="M867,662.1V631.84h2.17v28.3h18.07v2Z" transform="translate(-606.98 -363.15)"/><path class="cls-3" d="M916.92,633.8H905.83v28.3h-2.17V633.8H892.57v-2h24.34Z" transform="translate(-606.98 -363.15)"/><path class="cls-3" d="M930.34,662.1V631.88h2.17V662.1Z" transform="translate(-606.98 -363.15)"/><path class="cls-3" d="M951.23,635.93v26.18h-2.18V631.84h1.66l21.22,26.65v-26.6h2.17v30.22h-2Z" transform="translate(-606.98 -363.15)"/><path class="cls-3" d="M1013,657.42q-4.39,4.91-10.15,4.9A12.47,12.47,0,0,1,997.2,661a14.31,14.31,0,0,1-4.5-3.5,16.48,16.48,0,0,1-2.94-4.94,15.55,15.55,0,0,1-1.06-5.62,16.09,16.09,0,0,1,1-5.76,15.93,15.93,0,0,1,2.9-4.9,14.11,14.11,0,0,1,4.39-3.39,12.35,12.35,0,0,1,5.57-1.26,15.65,15.65,0,0,1,4.11.49,11.89,11.89,0,0,1,3.22,1.37,10.93,10.93,0,0,1,2.45,2.08,13.46,13.46,0,0,1,1.77,2.67l-1.75,1.06a9.93,9.93,0,0,0-4.12-4.32,12,12,0,0,0-5.73-1.34,10.09,10.09,0,0,0-4.84,1.15,11.94,11.94,0,0,0-3.68,3,13.35,13.35,0,0,0-2.35,4.27,15.12,15.12,0,0,0-.81,4.9,13.81,13.81,0,0,0,.94,5.09,13.51,13.51,0,0,0,2.58,4.24,12.28,12.28,0,0,0,3.86,2.92,10.71,10.71,0,0,0,4.77,1.09,11.13,11.13,0,0,0,5.22-1.28,16.59,16.59,0,0,0,4.8-4v-5.88h-6.87V647.4H1015v14.7H1013Z" transform="translate(-606.98 -363.15)"/></svg>