<?xml version="1.0" encoding="utf-8"?>
<!-- Generator: Adobe Illustrator 21.1.0, SVG Export Plug-In . SVG Version: 6.00 Build 0)  -->
<svg version="1.1" id="Layer_1" xmlns="http://www.w3.org/2000/svg" xmlns:xlink="http://www.w3.org/1999/xlink" x="0px" y="0px"
	 viewBox="0 0 264.6 145.6" style="enable-background:new 0 0 264.6 145.6;" xml:space="preserve">
<style type="text/css">
	.st0{display:none;}
	.st1{display:inline;fill:#003056;}
	.st2{display:inline;fill:#BDBEC0;}
	.st3{fill:#00A1AF;}
	.st4{fill:#FB3449;}
	.st5{fill:#FFC627;}
	.st6{fill:#003056;}
	.st7{fill:#BCBDBF;}
</style>
<g id="Layer_3" class="st0">
	<path class="st1" d="M70.9,133.4c-0.3,0.3-0.7,0.5-1.1,0.7V133c0.4-0.2,0.8-0.5,1.2-0.9h1v11.7h-1.1V133.4z"/>
	<path class="st1" d="M74.3,133.9c0-1.2,0.5-1.8,1.7-1.8c0.8-0.1,1.6,0.6,1.6,1.4c0,0.1,0,0.2,0,0.3v1.1c0,0.5-0.1,1-0.3,1.5
		l-2.2,6.5h2.5v0.9h-3.5v-1.1l2.2-6.4c0.2-0.5,0.3-1.1,0.3-1.6v-0.9c0-0.6-0.2-1-0.7-1s-0.7,0.3-0.7,1v1.3h-1L74.3,133.9z"/>
	<path class="st1" d="M78.7,142.7h1.1v1.2h-1.1V142.7z"/>
	<path class="st1" d="M81.1,132.2h3.3v0.9h-2.3v4l0,0c0.2-0.3,0.6-0.5,1-0.5c0.8,0,1.3,0.4,1.3,1.5v4.2c0,0.9-0.8,1.7-1.7,1.7
		c-0.9,0-1.7-0.8-1.7-1.7l0,0v-1.6h1v1.6c0,0.6,0.2,1,0.7,1s0.7-0.4,0.7-1v-3.9c0-0.6-0.1-1-0.7-1s-0.7,0.4-0.7,1v0.5h-1L81.1,132.2
		z"/>
	<path class="st2" d="M88.7,132.1h0.8v11.8h-0.8V132.1z"/>
	<path class="st1" d="M93.9,133.9c0-1.2,0.5-1.8,1.7-1.8c0.8-0.1,1.6,0.6,1.6,1.4c0,0.1,0,0.2,0,0.3v1.1c0,0.5-0.1,1-0.3,1.5
		l-2.3,6.5h2.5v0.9h-3.5v-1.1l2.2-6.4c0.2-0.5,0.3-1.1,0.3-1.6v-0.9c0-0.6-0.2-1-0.6-1s-0.6,0.3-0.6,1v1.3h-1L93.9,133.9z"/>
	<path class="st1" d="M98.5,132.2h3.3v0.9h-2.3v4l0,0c0.2-0.3,0.6-0.5,1-0.5c0.8,0,1.3,0.4,1.3,1.5v4.2c0,0.9-0.8,1.7-1.7,1.7
		s-1.7-0.8-1.7-1.7v-1.6h1v1.6c0,0.6,0.1,1,0.7,1s0.7-0.4,0.7-1v-3.9c0-0.6-0.1-1-0.7-1s-0.7,0.4-0.7,1v0.5h-1L98.5,132.2z"/>
	<path class="st2" d="M106,132.1h0.8v11.8H106V132.1z"/>
	<path class="st1" d="M112.2,137.4h0.6c0.4,0,0.7-0.3,0.7-0.7l0,0v-3c0-0.4-0.2-0.7-0.6-0.7s-0.7,0.2-0.7,0.6c0,0.1,0,0.1,0,0.2v1.6
		h-1V134c0-0.9,0.7-1.7,1.7-1.7c0.9,0,1.7,0.7,1.7,1.7l0,0v2.7c0,0.9-0.3,1.1-0.8,1.3l0,0c0.6,0.1,0.8,0.4,0.8,1.1v3.2
		c0,1.1-0.5,1.8-1.7,1.8c-0.8,0.1-1.6-0.5-1.7-1.4c0-0.1,0-0.3,0-0.4v-1.6h1v1.8c0,0.4,0.2,0.7,0.6,0.7s0.7-0.2,0.7-0.6
		c0-0.1,0-0.1,0-0.2V139c0-0.4-0.3-0.7-0.6-0.7l0,0h-0.6L112.2,137.4L112.2,137.4z"/>
	<path class="st1" d="M118.2,133.1h-2.6v-0.9h3.5v1.1l-1.8,10.6h-1L118.2,133.1z"/>
	<path class="st1" d="M120.2,142.7h1.1v1.2h-1.1V142.7z"/>
	<path class="st1" d="M122.6,132.2h3.3v0.9h-2.3v4l0,0c0.2-0.3,0.6-0.5,1-0.5c0.8,0,1.3,0.4,1.3,1.5v4.2c0,0.9-0.8,1.7-1.7,1.7
		s-1.7-0.8-1.7-1.7v-1.6h1v1.6c0,0.6,0.1,1,0.7,1s0.7-0.4,0.7-1v-3.9c0-0.6-0.1-1-0.7-1s-0.7,0.4-0.7,1v0.5h-1L122.6,132.2z"/>
	<path class="st2" d="M130.2,132.1h0.8v11.8h-0.8V132.1z"/>
	<path class="st1" d="M135.4,132.2h3.3v0.9h-2.3v4l0,0c0.2-0.3,0.6-0.5,1-0.5c0.8,0,1.3,0.4,1.3,1.5v4.2c0,0.9-0.8,1.7-1.7,1.7
		s-1.7-0.8-1.7-1.7v-1.6h1v1.6c0,0.6,0.1,1,0.7,1c0.6,0,0.7-0.4,0.7-1v-3.9c0-0.6-0.1-1-0.7-1s-0.7,0.4-0.7,1v0.5h-1L135.4,132.2z"
		/>
	<path class="st1" d="M139.8,133.8c0-0.9,0.7-1.7,1.7-1.7c0.9,0,1.7,0.7,1.7,1.7l0,0v8.4c0,0.9-0.7,1.7-1.7,1.7
		c-0.9,0-1.7-0.7-1.7-1.7l0,0V133.8z M142.2,133.7c0-0.3,0-0.8-0.7-0.8s-0.7,0.5-0.7,0.8v8.6c0,0.3,0,0.8,0.7,0.8s0.7-0.5,0.7-0.8
		V133.7z"/>
	<path class="st1" d="M146.7,135.1h0.9v0.6l0,0c0.2-0.4,0.7-0.7,1.2-0.7c0.4,0,0.7,0.2,0.9,0.6c0.2-0.3,0.6-0.5,1-0.6
		c0.7,0,1.2,0.5,1.2,1.2c0,0.1,0,0.1,0,0.2v7.6h-1v-7.2c0-0.5-0.1-0.8-0.5-0.8s-0.6,0.4-0.6,0.8v7.2h-1v-7.2c0-0.5-0.1-0.8-0.5-0.8
		s-0.6,0.4-0.6,0.8v7.2h-1L146.7,135.1z"/>
	<path class="st1" d="M155.7,135.1h0.9v8.8c0,1.2-0.6,1.8-1.8,1.8c-0.8,0.1-1.5-0.5-1.5-1.3v-0.1V144h1v0.3c0,0.6,0.3,0.8,0.6,0.8
		s0.6-0.3,0.6-0.8v-1.2l0,0c-0.2,0.3-0.6,0.5-1,0.5c-0.6,0-1.2-0.4-1.2-1.5v-5.6c-0.1-0.7,0.4-1.3,1.1-1.4h0.1
		c0.5,0,0.9,0.3,1.1,0.7l0,0L155.7,135.1z M155.7,136.6c0-0.4-0.3-0.7-0.7-0.7h-0.1c-0.4,0-0.6,0.3-0.6,0.9v5.1
		c0,0.3,0.2,0.7,0.6,0.7c0,0,0,0,0.1,0c0.5,0,0.7-0.4,0.7-1V136.6z"/>
	<path class="st1" d="M162.2,136.4c0-0.4-0.2-0.6-0.5-0.6s-0.5,0.3-0.5,0.6v1c0,0.3,0.2,0.6,0.4,0.9l1.3,1.8c0.2,0.3,0.4,0.6,0.4,1
		v1.5c0.1,0.7-0.5,1.4-1.2,1.5c-0.1,0-0.2,0-0.3,0c-0.7,0.1-1.4-0.4-1.5-1.1c0-0.1,0-0.2,0-0.3v-1.5h1v1.4c0,0.4,0.1,0.8,0.5,0.8
		s0.5-0.4,0.5-0.8v-1.1c0-0.4-0.1-0.7-0.4-1l-1.1-1.6c-0.3-0.3-0.5-0.7-0.5-1.2v-1.1c0-0.8,0.6-1.5,1.4-1.5c0.1,0,0.1,0,0.2,0
		c0.7-0.1,1.3,0.4,1.4,1.1c0,0.1,0,0.1,0,0.2v1.5h-0.9v-1.5L162.2,136.4L162.2,136.4z"/>
	<path class="st1" d="M167.8,143.9h-0.9v-0.6l0,0c-0.2,0.4-0.7,0.7-1.2,0.7c-0.7,0-1.2-0.5-1.2-1.2c0-0.1,0-0.1,0-0.2V135h1v7.2
		c0,0.5,0.2,0.8,0.6,0.8c0.4,0,0.7-0.4,0.7-0.8V135h1L167.8,143.9z"/>
	<path class="st1" d="M171.1,136.4c0-0.4-0.2-0.6-0.5-0.6s-0.5,0.3-0.5,0.6v1c0,0.3,0.2,0.6,0.4,0.9l1.3,1.8c0.2,0.3,0.4,0.6,0.4,1
		v1.5c0.1,0.7-0.5,1.4-1.2,1.5c-0.1,0-0.2,0-0.3,0c-0.7,0.1-1.4-0.4-1.5-1.1c0-0.1,0-0.2,0-0.3v-1.5h1v1.4c0,0.4,0.1,0.8,0.5,0.8
		s0.5-0.4,0.5-0.8v-1.1c0-0.4-0.1-0.7-0.4-1l-1.1-1.6c-0.3-0.3-0.5-0.7-0.5-1.2v-1.1c0-0.8,0.6-1.5,1.4-1.5c0.1,0,0.1,0,0.2,0
		c0.7-0.1,1.3,0.4,1.4,1.1c0,0.1,0,0.1,0,0.2v1.5h-0.9v-1.5L171.1,136.4L171.1,136.4z"/>
	<path class="st1" d="M173.4,133.9l1-0.4v1.6h0.7v0.8h-0.7v6.7c0,0.4,0.2,0.5,0.5,0.5h0.2v0.8h-0.5c-0.8,0-1.2-0.4-1.2-1.1v-6.9
		h-0.5v-0.8h0.5V133.9z"/>
	<path class="st1" d="M178.4,136.5c0-0.5-0.2-0.8-0.6-0.8c-0.6,0-0.6,0.3-0.6,0.9v0.8h-1v-1c0-0.8,0.7-1.5,1.5-1.5
		c0.1,0,0.1,0,0.2,0c1,0,1.5,0.4,1.5,1.5v7.4h-0.9v-0.5l0,0c-0.3,0.4-0.7,0.6-1.2,0.6c-0.8,0-1.2-0.6-1.2-1.5V140
		c0-1.1,0.7-1.7,2.3-1.7V136.5z M178.4,139.2c-0.5,0-1.3,0.2-1.3,1v2c0,0.6,0.1,1,0.6,1s0.7-0.3,0.7-0.9V139.2z"/>
	<path class="st1" d="M180.7,132.2h1.1v1.2h-1.1V132.2z M180.7,135.1h1v8.8h-1V135.1z"/>
	<path class="st1" d="M183.1,135.1h0.9v0.6l0,0c0.2-0.4,0.7-0.7,1.2-0.7c0.7,0,1.2,0.5,1.2,1.2c0,0.1,0,0.1,0,0.2v7.6h-1v-7.2
		c0-0.5-0.2-0.8-0.6-0.8c-0.4,0-0.7,0.4-0.7,0.8v7.2h-1L183.1,135.1z"/>
	<path class="st1" d="M190,141h1v1.2c0.1,0.9-0.6,1.7-1.5,1.8s-1.7-0.6-1.8-1.5c0-0.1,0-0.2,0-0.3v-5.6c-0.1-0.9,0.6-1.7,1.5-1.8
		s1.7,0.6,1.8,1.5c0,0.1,0,0.2,0,0.3v3.1h-2.3v2.6c0,0.6,0.3,0.9,0.7,0.9s0.7-0.2,0.7-0.9L190,141z M190,136.7
		c0-0.6-0.3-0.9-0.7-0.9s-0.7,0.2-0.7,0.9v2.1h1.3L190,136.7z"/>
	<path class="st1" d="M194.6,143.3L194.6,143.3c-0.2,0.4-0.6,0.7-1.1,0.6c-0.6,0-1.3-0.4-1.3-1.7v-5.9c-0.1-0.7,0.4-1.3,1.1-1.4
		c0.5-0.1,1,0.2,1.2,0.6l0,0v-3.4h1v11.7h-0.9V143.3z M194.5,136.8c0-0.6-0.3-1-0.7-1s-0.6,0.4-0.6,1v5.3c0,0.6,0.2,0.9,0.6,0.9
		c0.4,0,0.8-0.3,0.8-1v-5.2H194.5z"/>
	<path class="st1" d="M196.6,138.6h1.9v0.9h-1.9V138.6z"/>
	<path class="st1" d="M199.5,135.1h0.9v0.6l0,0c0.3-0.5,0.8-0.7,1.3-0.7v1c-1,0-1.3,0.4-1.3,1.3v6.6h-1L199.5,135.1z"/>
	<path class="st1" d="M204.9,141h1v1.2c0.1,0.9-0.6,1.7-1.5,1.8s-1.7-0.6-1.8-1.5c0-0.1,0-0.2,0-0.3v-5.6c-0.1-0.9,0.6-1.7,1.5-1.8
		s1.7,0.6,1.8,1.5c0,0.1,0,0.2,0,0.3v3.1h-2.3v2.6c0,0.6,0.3,0.9,0.7,0.9s0.7-0.2,0.7-0.9L204.9,141z M204.9,136.7
		c0-0.6-0.3-0.9-0.7-0.9s-0.7,0.2-0.7,0.9v2.1h1.3L204.9,136.7z"/>
	<path class="st1" d="M207.3,132.2h1v11.7h-1V132.2z"/>
	<path class="st1" d="M212,141h1v1.2c0.1,0.9-0.6,1.7-1.5,1.8s-1.7-0.6-1.8-1.5c0-0.1,0-0.2,0-0.3v-5.6c-0.1-0.9,0.6-1.7,1.5-1.8
		s1.7,0.6,1.8,1.5c0,0.1,0,0.2,0,0.3v3.1h-2.3v2.6c0,0.6,0.3,0.9,0.7,0.9s0.7-0.2,0.7-0.9L212,141z M212,136.7
		c0-0.6-0.3-0.9-0.7-0.9s-0.7,0.2-0.7,0.9v2.1h1.3L212,136.7z"/>
	<path class="st1" d="M216.5,136.5c0-0.5-0.2-0.8-0.6-0.8c-0.6,0-0.6,0.3-0.6,0.9v0.8h-1v-1c0-0.8,0.7-1.5,1.6-1.5h0.1
		c1,0,1.5,0.4,1.5,1.5v7.4h-0.9v-0.5l0,0c-0.3,0.4-0.7,0.6-1.2,0.6c-0.8,0-1.2-0.6-1.2-1.5V140c0-1.1,0.7-1.7,2.3-1.7L216.5,136.5z
		 M216.5,139.2c-0.5,0-1.3,0.2-1.3,1v2c0,0.6,0.1,1,0.6,1s0.7-0.3,0.7-0.9V139.2z"/>
	<path class="st1" d="M220.8,136.4c0-0.4-0.2-0.6-0.5-0.6s-0.5,0.3-0.5,0.6v1c0,0.3,0.2,0.6,0.4,0.9l1.3,1.8c0.2,0.3,0.4,0.6,0.4,1
		v1.5c0.1,0.7-0.5,1.4-1.2,1.5c-0.1,0-0.2,0-0.3,0c-0.7,0.1-1.4-0.4-1.5-1.1c0-0.1,0-0.2,0-0.3v-1.5h1v1.4c0,0.4,0.1,0.8,0.5,0.8
		s0.5-0.4,0.5-0.8v-1.1c0-0.4-0.1-0.7-0.4-1l-1.1-1.6c-0.3-0.3-0.5-0.7-0.5-1.2v-1.1c0-0.8,0.6-1.5,1.4-1.5c0.1,0,0.1,0,0.2,0
		c0.7-0.1,1.3,0.4,1.4,1.1c0,0.1,0,0.1,0,0.2v1.5H221L220.8,136.4z"/>
	<path class="st1" d="M225.3,141h1v1.2c0.1,0.9-0.6,1.7-1.5,1.8s-1.7-0.6-1.8-1.5c0-0.1,0-0.2,0-0.3v-5.6c-0.1-0.9,0.6-1.7,1.5-1.8
		s1.7,0.6,1.8,1.5c0,0.1,0,0.2,0,0.3v3.1H224v2.6c0,0.6,0.3,0.9,0.7,0.9s0.7-0.2,0.7-0.9L225.3,141z M225.3,136.7
		c0-0.6-0.3-0.9-0.7-0.9s-0.7,0.2-0.7,0.9v2.1h1.3L225.3,136.7L225.3,136.7z"/>
	<path class="st1" d="M231.9,136.5c0-0.6-0.1-0.7-0.5-0.7s-0.5,0.2-0.5,0.7v6c0,0.4,0.1,0.7,0.5,0.7s0.5-0.3,0.5-0.7v-1.4h1v1.4
		c0.1,0.7-0.5,1.4-1.2,1.5c-0.1,0-0.2,0-0.3,0c-0.8,0-1.5-0.4-1.5-1.3v-6c-0.1-0.8,0.5-1.6,1.3-1.7c0.1,0,0.3,0,0.4,0
		c0.7-0.1,1.3,0.4,1.4,1.1c0,0.1,0,0.2,0,0.3v1.5h-1L231.9,136.5L231.9,136.5z"/>
	<path class="st1" d="M236.5,136.5c0-0.5-0.2-0.8-0.6-0.8c-0.6,0-0.6,0.3-0.6,0.9v0.8h-1v-1c0-0.8,0.7-1.5,1.6-1.5h0.1
		c1,0,1.5,0.4,1.5,1.5v7.4h-0.9v-0.5l0,0c-0.3,0.4-0.8,0.6-1.2,0.5c-0.8,0-1.2-0.6-1.2-1.5v-2.4c0-1.1,0.7-1.7,2.3-1.7L236.5,136.5z
		 M236.5,139.2c-0.5,0-1.3,0.2-1.3,1v2c0,0.6,0.1,1,0.6,1s0.7-0.3,0.7-0.9V139.2z"/>
	<path class="st1" d="M238.7,135.1h0.9v0.6l0,0c0.2-0.4,0.6-0.7,1.1-0.6c0.6,0,1.3,0.4,1.3,1.7v5.9c0.1,0.7-0.4,1.3-1,1.4h-0.1
		c-0.5,0-0.9-0.2-1.1-0.6l0,0v2.3h-1L238.7,135.1z M241,136.7c0-0.6-0.2-0.9-0.6-0.9s-0.7,0.3-0.7,1v5.4c0,0.6,0.3,1,0.7,1
		s0.6-0.4,0.6-1V136.7z"/>
	<path class="st1" d="M245.3,136.4c0-0.4-0.2-0.6-0.5-0.6s-0.5,0.3-0.5,0.6v1c0,0.3,0.2,0.6,0.4,0.9l1.3,1.8c0.2,0.3,0.4,0.6,0.4,1
		v1.5c0.1,0.7-0.5,1.4-1.2,1.5c-0.1,0-0.2,0-0.3,0c-0.7,0.1-1.4-0.4-1.5-1.1c0-0.1,0-0.2,0-0.3v-1.5h1v1.4c0,0.4,0.1,0.8,0.5,0.8
		s0.5-0.4,0.5-0.8v-1.1c0-0.4-0.1-0.7-0.4-1l-1.1-1.6c-0.3-0.3-0.5-0.7-0.5-1.2v-1.1c0-0.8,0.6-1.5,1.4-1.5c0.1,0,0.1,0,0.2,0
		c0.7-0.1,1.3,0.4,1.4,1.1c0,0.1,0,0.1,0,0.2v1.5h-0.9v-1.5L245.3,136.4L245.3,136.4z"/>
	<path class="st1" d="M250.9,143.9H250v-0.6l0,0c-0.2,0.4-0.7,0.7-1.2,0.7c-0.7,0-1.2-0.5-1.2-1.1c0-0.1,0-0.1,0-0.2v-7.6h1v7.2
		c0,0.5,0.2,0.8,0.6,0.8c0.4,0,0.7-0.4,0.7-0.8v-7.2h1L250.9,143.9z"/>
	<path class="st1" d="M252.2,132.2h1v11.7h-1V132.2z"/>
	<path class="st1" d="M256.9,141h1v1.2c0.1,0.9-0.6,1.7-1.5,1.8s-1.7-0.6-1.8-1.5c0-0.1,0-0.2,0-0.3v-5.6c-0.1-0.9,0.6-1.7,1.5-1.8
		c0.9-0.1,1.7,0.6,1.8,1.5c0,0.1,0,0.2,0,0.3v3.1h-2.3v2.6c0,0.6,0.3,0.9,0.7,0.9s0.7-0.2,0.7-0.9L256.9,141z M256.9,136.7
		c0-0.6-0.3-0.9-0.7-0.9s-0.7,0.2-0.7,0.9v2.1h1.3L256.9,136.7z"/>
	<path class="st1" d="M261.2,136.4c0-0.4-0.2-0.6-0.5-0.6s-0.5,0.3-0.5,0.6v1c0,0.3,0.2,0.6,0.4,0.9l1.3,1.8c0.2,0.3,0.4,0.6,0.4,1
		v1.5c0.1,0.7-0.5,1.4-1.2,1.5c-0.1,0-0.2,0-0.3,0c-0.7,0.1-1.4-0.4-1.5-1.1c0-0.1,0-0.2,0-0.3v-1.5h1v1.4c0,0.4,0.1,0.8,0.5,0.8
		s0.5-0.4,0.5-0.8v-1.1c0-0.4-0.1-0.7-0.4-1l-1.1-1.6c-0.3-0.3-0.5-0.7-0.5-1.2v-1.1c0-0.8,0.6-1.5,1.4-1.5c0.1,0,0.1,0,0.2,0
		c0.7-0.1,1.3,0.4,1.4,1.1c0,0.1,0,0.1,0,0.2v1.5h-0.9v-1.5L261.2,136.4L261.2,136.4z"/>
</g>
<g>
	<path class="st3" d="M33.1,71.6c5.2,5.2,12,8,19.3,8c7.1,0,13.9-2.7,19-7.7c-0.1,0.1-0.3,0.2-0.4,0.3c-0.3,0.2-0.6,0.4-1,0.6
		c-0.2,0.1-0.4,0.3-0.6,0.4c-0.2,0.1-0.5,0.3-0.7,0.4c-0.5,0.3-1.1,0.6-1.7,0.9c-0.6,0.3-1.3,0.6-2.1,0.9c-0.7,0.3-1.5,0.5-2.4,0.8
		c-0.8,0.3-1.7,0.4-2.7,0.7C58.9,77,58,77.2,57,77.3c-1,0-2,0.2-3.1,0.1c-2.1,0-4.3-0.4-6.5-0.9c-2.2-0.6-4.4-1.5-6.4-2.6
		c-2-1.2-3.9-2.7-5.7-4.3L34,68.2c-0.2-0.2-0.5-0.5-0.6-0.7l-0.5-0.7l-0.5-0.7l-0.3-0.3l-0.2-0.4c-0.3-0.5-0.6-1-0.9-1.5
		c-1.1-2.1-2.1-4.2-2.6-6.4c-0.5-2.2-0.9-4.4-0.9-6.5c-0.1-1.1,0.1-2.1,0.1-3.1c0.1-1,0.3-2,0.4-2.9c0.2-0.9,0.4-1.8,0.7-2.7
		c0.3-0.8,0.5-1.6,0.8-2.4c0.3-0.7,0.6-1.4,0.9-2.1c0.3-0.6,0.6-1.2,0.9-1.7c0.1-0.3,0.3-0.5,0.4-0.7c0.1-0.2,0.3-0.4,0.4-0.6
		c0.2-0.4,0.5-0.7,0.6-1c0.1-0.2,0.2-0.3,0.3-0.4c-5,5.1-7.7,11.8-7.7,19C25.1,59.6,28,66.5,33.1,71.6z"/>
	<path class="st3" d="M33,71.8c-5.2-5.2-8.1-12.1-8.1-19.4c0-7.1,2.7-13.9,7.6-19c-0.1,0.1-0.2,0.1-0.3,0.2
		c-0.3,0.2-0.6,0.4-0.9,0.7c-0.2,0.1-0.4,0.3-0.6,0.5c-0.2,0.2-0.4,0.4-0.6,0.6c-0.4,0.4-0.9,0.9-1.4,1.5c-0.5,0.6-0.9,1.2-1.5,1.9
		c-0.5,0.7-0.9,1.5-1.5,2.3c-0.5,0.8-0.9,1.8-1.3,2.8c-0.2,0.5-0.4,1-0.5,1.6c-0.2,0.5-0.4,1.1-0.5,1.6c-0.2,1.1-0.6,2.3-0.7,3.6
		c-0.4,2.5-0.2,5.2,0.2,7.9c0.1,0.7,0.3,1.4,0.4,2.1c0.2,0.7,0.4,1.4,0.6,2l0.3,1l0.4,1c0.3,0.7,0.6,1.3,0.9,2
		c0.4,0.6,0.7,1.3,1.1,1.9l0.3,0.5l0.3,0.5l0.7,0.9l0.7,0.9c0.2,0.3,0.5,0.5,0.7,0.8l1.4,1.6c2.2,2.1,4.6,3.9,7.2,5.2
		c0.6,0.3,1.3,0.6,2,0.9l1,0.4l1,0.3c0.7,0.2,1.4,0.5,2,0.6c0.7,0.1,1.4,0.3,2.1,0.4c2.7,0.4,5.4,0.5,7.9,0.2
		c1.2-0.1,2.4-0.4,3.6-0.7c0.6-0.1,1.1-0.3,1.6-0.5c0.5-0.2,1.1-0.3,1.6-0.5c1-0.5,1.9-0.8,2.8-1.3c0.8-0.5,1.6-0.9,2.3-1.5
		c0.7-0.5,1.3-1,1.9-1.5c0.6-0.5,1-1,1.5-1.4c0.2-0.2,0.4-0.4,0.6-0.6c0.2-0.2,0.3-0.4,0.5-0.6c0.3-0.4,0.5-0.7,0.7-0.9
		c0.1-0.1,0.2-0.2,0.2-0.3c-5.1,4.9-11.9,7.6-19,7.6C45.1,79.8,38.2,77,33,71.8z"/>
	<path class="st4" d="M14,52.3c0-20.9,16.8-37.9,37.5-38.4c-0.1,0-0.3,0-0.4,0c-0.4,0-1-0.1-1.6-0.1c-0.3,0-0.7-0.1-1.1-0.1
		c-0.4,0-0.8,0-1.2,0.1c-0.8,0-1.8,0.1-2.8,0.2c-1,0.1-2.1,0.3-3.3,0.5c-1.2,0.2-2.4,0.6-3.7,1c-0.7,0.1-1.3,0.5-1.9,0.7
		c-0.7,0.3-1.3,0.5-2,0.8c-0.7,0.3-1.3,0.7-2,1c-0.7,0.4-1.4,0.7-2.1,1.1c-1.3,0.9-2.8,1.8-4.1,2.9c-2.7,2.1-5.2,4.9-7.4,7.9
		c-0.5,0.8-1,1.6-1.6,2.4c-0.5,0.8-0.9,1.7-1.4,2.6c-0.2,0.4-0.4,0.9-0.7,1.3l-0.5,1.4c-0.3,0.9-0.7,1.8-1,2.8
		c-0.3,1-0.5,1.9-0.8,2.9L11.9,44l-0.1,0.8l-0.2,1.6l-0.2,1.6c0,0.3-0.1,0.5-0.1,0.7l0,0.7L11,52.2c0,0.3,0,0.1,0,0.2l0,0l0,0.1
		l0,0.2l0,0.4l0,0.8l0.1,1.5c0,0.5,0,1,0.1,1.5l0.2,1.5l0.2,1.5l0.1,0.7l0.2,0.7c0.3,1,0.5,1.9,0.8,2.9c0.3,1,0.7,1.9,1,2.8l0.5,1.4
		c0.2,0.4,0.4,0.9,0.7,1.3c0.5,0.9,0.9,1.8,1.4,2.6c0.5,0.8,1,1.6,1.6,2.4c2.2,3.1,4.6,5.8,7.4,7.9c1.3,1.1,2.7,2,4.1,2.9
		c0.7,0.5,1.4,0.8,2.1,1.1c0.7,0.4,1.3,0.7,2,1c0.7,0.3,1.4,0.6,2,0.8c0.7,0.3,1.3,0.6,1.9,0.7c1.3,0.3,2.5,0.7,3.7,1
		c1.2,0.2,2.3,0.4,3.3,0.5c1,0.1,2,0.1,2.8,0.2c0.4,0,0.8,0,1.2,0.1c0.4,0,0.7,0,1-0.1c0.6,0,1.2-0.1,1.6-0.1c0.2,0,0.3,0,0.4,0
		C30.7,90.3,14,73.2,14,52.3z"/>
	<path class="st4" d="M14.2,52.3c0,20.9,16.8,37.9,37.7,38.3c-0.2,0-0.4-0.1-0.7-0.1c-0.4-0.1-1-0.2-1.6-0.3c-0.3-0.1-0.7-0.1-1-0.2
		c-0.4-0.1-0.7-0.2-1.1-0.3c-0.8-0.2-1.7-0.4-2.6-0.7c-0.9-0.3-1.9-0.7-3-1.1c-1-0.4-2.1-1-3.2-1.5c-1.1-0.5-2.2-1.2-3.4-1.9
		c-0.6-0.4-1.1-0.8-1.7-1.2c-0.6-0.4-1.2-0.8-1.7-1.3c-1.1-1-2.3-1.8-3.3-3c-2.2-2.1-4.1-4.7-5.9-7.4c-1.7-2.8-3-5.9-4-9.2
		c-0.2-0.8-0.4-1.7-0.6-2.5l-0.1-0.6l-0.1-0.6l-0.2-1.3l-0.2-1.3c-0.1-0.4-0.1-0.9-0.1-1.3l-0.1-1.3l0-0.6l0-0.3l0-0.2l0-0.1l0,0
		c0,0,0,0,0,0l0,0.1c0-0.2,0-0.1,0-0.1l0.1-2.7l0-0.7c0-0.2,0-0.5,0.1-0.7l0.2-1.2l0.2-1.2l0.1-0.6l0.1-0.6c0.2-0.8,0.4-1.7,0.6-2.5
		c1-3.3,2.3-6.4,4-9.2c1.8-2.8,3.7-5.4,5.9-7.4c1-1.1,2.2-2,3.3-3c0.5-0.5,1.2-0.8,1.7-1.3c0.6-0.4,1.1-0.8,1.7-1.2
		c1.2-0.6,2.3-1.3,3.4-1.9c1.1-0.5,2.2-1.1,3.2-1.5c1-0.4,2-0.7,3-1.1c0.9-0.3,1.8-0.5,2.6-0.7c0.4-0.1,0.8-0.2,1.1-0.3
		c0.4-0.1,0.7-0.1,1-0.2c0.6-0.1,1.2-0.2,1.6-0.3c0.3-0.1,0.5-0.1,0.7-0.1C31,14.4,14.2,31.4,14.2,52.3z"/>
	<g>
		<path class="st5" d="M17.5,17.4c19-19,49.9-19.3,69.2-0.7c-0.1-0.2-0.3-0.4-0.5-0.6c-0.4-0.4-0.9-0.9-1.4-1.5
			c-0.3-0.3-0.6-0.6-0.9-1c-0.4-0.3-0.7-0.7-1.1-1C81,11.2,79,9.5,76.4,7.9c-2.6-1.6-5.6-3.2-9.2-4.5c-3.5-1.3-7.6-2.2-11.9-2.7
			c-2.2-0.2-4.4-0.3-6.7-0.2c-2.3,0.1-4.6,0.4-7,0.8c-4.7,0.9-9.5,2.5-13.9,4.8c-2.2,1.2-4.4,2.5-6.5,4c-1,0.8-2,1.5-3,2.4
			c-0.5,0.4-1,0.9-1.4,1.3l-1.4,1.3c-1.8,1.8-3.5,3.8-5,5.8c-1.5,2.1-2.9,4.2-4,6.5c-2.3,4.5-4,9.2-4.8,13.9c-0.4,2.4-0.7,4.7-0.8,7
			c-0.1,2.3,0,4.5,0.2,6.7c0.4,4.3,1.4,8.4,2.6,11.9c1.3,3.6,2.9,6.6,4.5,9.2c1.6,2.6,3.3,4.6,4.7,6.2c0.4,0.4,0.7,0.8,1,1.1
			c0.3,0.3,0.7,0.7,1,0.9c0.6,0.6,1.1,1.1,1.5,1.4c0.2,0.2,0.4,0.4,0.6,0.5C-1.8,67.3-1.6,36.4,17.5,17.4z"/>
		<path class="st5" d="M17.6,17.5c-19,19-19.2,49.7-0.7,68.9c-0.1-0.2-0.3-0.4-0.5-0.6c-0.4-0.4-0.8-1-1.2-1.7
			c-0.5-0.7-1-1.4-1.6-2.3c-1.1-1.8-2.4-4-3.6-6.6c-1.2-2.6-2.3-5.7-3.2-9.1C6,62.7,5.6,59,5.5,55c0-2,0-4,0.3-6.1
			c0.2-2.1,0.6-4.2,1.1-6.2c0.5-2.1,1.2-4.2,1.9-6.2c0.8-2.1,1.8-4.1,2.8-6c1.1-2,2.3-3.8,3.7-5.7c1.4-1.8,2.9-3.5,4.5-5.1
			c0.8-0.7,1.7-1.7,2.5-2.3c0.8-0.7,1.7-1.4,2.6-2.1c1.8-1.3,1.7-1.5,3.7-2.6c0.5-0.3,3-1.6,3.5-1.8c0.5-0.3,1-0.5,1.5-0.7
			c0.5-0.2,1-0.5,1.5-0.7c0.5-0.2,1-0.4,1.5-0.6c2.1-0.8,4.1-1.4,6.2-1.9c0.5-0.1,1-0.3,1.6-0.3c0.5-0.1,1-0.2,1.6-0.3
			C46.9,6,48,5.8,49,5.7c2.1-0.2,4.1-0.3,6.1-0.3c2,0,3.9,0.2,5.8,0.4c0.9,0.1,1.8,0.3,2.7,0.4c0.9,0.2,1.8,0.4,2.6,0.6
			c3.4,0.9,6.5,2,9.1,3.2c2.6,1.2,4.8,2.5,6.6,3.6c0.9,0.6,1.7,1.1,2.3,1.6c0.7,0.5,1.2,0.9,1.7,1.2c0.2,0.2,0.4,0.3,0.6,0.5
			C67.3-1.6,36.6-1.4,17.6,17.5z"/>
	</g>
	<g>
		<g>
			<g>
				<path class="st6" d="M52,26.6l8.3,0c0,0,4.6,12.9,5,15l-0.2,0c1-2.1,11.4-15,11.4-15l8.3,0l-5.5,34.2l-7.2,0l2-9.9
					c0.5-3.4,2-11,2.9-14.3l-0.2,0L63.2,54l-0.6,0l-5.9-17.4l-0.2,0c-0.2,3.3-1.1,10.9-1.6,14.3l-1.3,9.9l-7.1,0L52,26.6z"/>
				<path class="st6" d="M112.8,47.9c1.4-8.5,7.7-13.6,13.3-13.6c3,0,4.6,1.1,6.1,2.7l0.3-4l1.4-8.9l7.9,0l-6,36.7l-6.5,0l-0.1-2.6
					l-0.2,0c-2.2,1.8-5.1,3.2-7.6,3.2C114.9,61.5,111.5,56.4,112.8,47.9z M129.4,52.9l1.7-10.6c-1.2-1.3-2.7-1.7-4.2-1.7
					c-2.5,0-5.2,2.3-6,7.2c-0.8,5.1,0.6,7.4,3.7,7.5C126.4,55.3,127.8,54.7,129.4,52.9z"/>
				<path class="st6" d="M141.9,53.7c0.9-5.4,5.9-8.4,16.6-9.4c0.2-2.3-0.7-3.8-3.6-3.8c-2.3,0-4.6,0.9-7.5,2.3l-2-5.1
					c3.7-2,7.8-3.4,12-3.4c6.9,0,10,3.8,8.7,11.8L163.8,61l-6.5,0l-0.1-2.7l-0.2,0c-2.6,1.9-5.3,3.3-8.3,3.3
					C143.7,61.6,141.2,58.1,141.9,53.7z M157,53.5l0.7-4.6c-5.7,0.7-7.8,2.3-8.2,4.3c-0.3,1.7,0.8,2.5,2.7,2.5
					C154.1,55.7,155.4,54.8,157,53.5z"/>
				<path class="st6" d="M199.5,35.1l7.9,0l-4.2,26l-7.9,0L199.5,35.1z"/>
				<path class="st6" d="M207.3,58.2l4.3-4.8c2.1,1.8,4.2,2.7,6.5,2.7c2.4,0,3.5-0.8,3.8-2.2c0.3-1.7-2.3-2.5-4.9-3.6
					c-3-1.2-6.5-3.4-5.8-7.7c0.8-4.8,5.4-8.1,11.6-8.1c4.1,0,6.9,1.6,8.9,3.3l-4.3,4.6c-1.7-1.4-3.4-2.2-5.3-2.2
					c-2.1,0-3.1,0.7-3.4,2c-0.3,1.7,2.1,2.3,4.7,3.3c3.2,1.2,6.7,3.1,6,7.8c-0.8,4.7-5.2,8.4-12.4,8.4
					C213.5,61.8,209.7,60.3,207.3,58.2z"/>
			</g>
			<circle class="st6" cx="205" cy="27.4" r="4.4"/>
		</g>
		<path class="st6" d="M106.7,35.1l-5,11.1c-1,2.5-2,4.9-3,7.4l-0.2,0c-0.3-2.6-0.5-5-0.9-7.4l-2-11.2l-8,0l6.2,25.3
			c0,0-2.1,9-12.7,9.4c0,0,12.7,6.4,19.8-8.5l13.5-26.2L106.7,35.1z"/>
		<path class="st6" d="M188.5,35.1l-5,11.1c-1,2.5-2,4.9-3,7.4l-0.2,0c-0.3-2.6-0.5-5-0.9-7.4l-2-11.2l-8,0l6.2,25.3
			c0,0-2.1,9-12.7,9.4c0,0,12.7,6.4,19.8-8.5l13.5-26.2L188.5,35.1z"/>
	</g>
</g>
<g>
	<g>
		<path class="st6" d="M243.5,48.2c0-8.6,5.4-13.5,11.7-13.5c3.5,0,5.8,1.5,7.5,3.2l-1.4,1.7c-1.7-1.5-3.6-2.7-6.1-2.7
			c-5.2,0-9.3,4.6-9.3,11.4c0,6.7,3.7,11.3,9.3,11.3c2.7,0,5.1-1.3,6.8-2.9l1.2,1.7c-2.2,1.9-4.9,3.4-8.2,3.4
			C248.5,61.6,243.5,56.6,243.5,48.2z"/>
	</g>
	<g>
		<path class="st6" d="M252,42.8h1.9v10.6H252V42.8z"/>
		<path class="st6" d="M256.4,42.8h1.9v10.6h-1.9V42.8z"/>
	</g>
</g>
<g>
	<path class="st6" d="M241.3,35.3c0,2.5-2,4.5-4.5,4.5c-2.5,0-4.6-2-4.6-4.5c0-2.5,2-4.4,4.6-4.4C239.3,30.9,241.3,32.9,241.3,35.3z
		 M233.3,35.3c0,2,1.5,3.5,3.5,3.5c1.9,0,3.4-1.6,3.4-3.5c0-2-1.4-3.6-3.4-3.6S233.3,33.4,233.3,35.3z M236.1,37.7h-1v-4.4
		c0.4-0.1,1-0.1,1.7-0.1c0.8,0,1.2,0.1,1.5,0.3c0.2,0.2,0.4,0.5,0.4,1c0,0.5-0.4,0.9-0.9,1v0.1c0.4,0.2,0.7,0.5,0.8,1.1
		c0.1,0.7,0.2,0.9,0.3,1.1h-1.1c-0.1-0.2-0.2-0.6-0.4-1.1c-0.1-0.5-0.4-0.7-0.9-0.7h-0.5V37.7z M236.1,35.1h0.5c0.6,0,1-0.2,1-0.6
		c0-0.4-0.3-0.7-0.9-0.7c-0.3,0-0.5,0-0.6,0.1V35.1z"/>
</g>
<g>
	<g>
		<path class="st6" d="M73.2,133.5c-0.2,0.2-0.8,0.6-1.1,0.7v-1.1c0.4-0.2,0.9-0.6,1.2-0.8h0.9v11.6h-1.1V133.5z"/>
		<path class="st6" d="M76.5,133.9c0-1.2,0.5-1.7,1.7-1.7c1.1,0,1.6,0.7,1.6,1.7v1.1c0,0.4-0.1,1.1-0.3,1.5l-2.2,6.4h2.5v0.9h-3.4
			v-1.1l2.2-6.3c0.2-0.5,0.3-1,0.3-1.6V134c0-0.6-0.2-0.9-0.6-0.9s-0.6,0.3-0.6,0.9v1.3h-1V133.9z"/>
		<path class="st6" d="M80.9,142.7H82v1.2h-1.1V142.7z"/>
		<path class="st6" d="M83.3,132.3h3.2v0.9h-2.2v3.9h0c0.2-0.3,0.6-0.5,1-0.5c0.8,0,1.3,0.4,1.3,1.5v4.1c0,1-0.5,1.7-1.7,1.7
			c-1.2,0-1.7-0.7-1.7-1.7v-1.6h1v1.6c0,0.6,0.1,0.9,0.7,0.9c0.5,0,0.7-0.4,0.7-0.9v-3.9c0-0.6-0.1-0.9-0.7-0.9
			c-0.5,0-0.7,0.4-0.7,0.9v0.5h-1V132.3z"/>
		<path class="st7" d="M90.7,132.2h0.8V144h-0.8V132.2z"/>
		<path class="st6" d="M95.9,133.9c0-1.2,0.5-1.7,1.7-1.7c1.1,0,1.6,0.7,1.6,1.7v1.1c0,0.4-0.1,1.1-0.3,1.5l-2.2,6.4h2.5v0.9h-3.4
			v-1.1l2.2-6.3c0.2-0.5,0.3-1,0.3-1.6V134c0-0.6-0.2-0.9-0.6-0.9s-0.6,0.3-0.6,0.9v1.3h-1V133.9z"/>
		<path class="st6" d="M100.4,132.3h3.2v0.9h-2.2v3.9h0c0.2-0.3,0.6-0.5,1-0.5c0.8,0,1.3,0.4,1.3,1.5v4.1c0,1-0.5,1.7-1.7,1.7
			c-1.2,0-1.7-0.7-1.7-1.7v-1.6h1v1.6c0,0.6,0.1,0.9,0.7,0.9c0.5,0,0.7-0.4,0.7-0.9v-3.9c0-0.6-0.1-0.9-0.7-0.9
			c-0.5,0-0.7,0.4-0.7,0.9v0.5h-1V132.3z"/>
		<path class="st7" d="M107.9,132.2h0.8V144h-0.8V132.2z"/>
		<path class="st6" d="M114,137.4h0.6c0.4,0,0.7-0.3,0.7-0.7v-3c0-0.4-0.3-0.7-0.7-0.7c-0.4,0-0.7,0.3-0.7,0.7v1.6h-1V134
			c0-1,0.5-1.7,1.7-1.7c1.2,0,1.6,0.7,1.6,1.7v2.6c0,0.8-0.3,1-0.8,1.3v0c0.6,0.1,0.8,0.4,0.8,1.1v3.2c0,1-0.5,1.7-1.6,1.7
			c-1.2,0-1.7-0.7-1.7-1.7v-1.6h1v1.8c0,0.4,0.3,0.7,0.7,0.7c0.4,0,0.7-0.3,0.7-0.7v-3.4c0-0.4-0.3-0.7-0.7-0.7H114V137.4z"/>
		<path class="st6" d="M119.9,133.2h-2.6v-0.9h3.5v1.1l-1.7,10.4h-1.1L119.9,133.2z"/>
		<path class="st6" d="M122,142.7h1.1v1.2H122V142.7z"/>
		<path class="st6" d="M124.3,132.3h3.2v0.9h-2.2v3.9h0c0.2-0.3,0.6-0.5,1-0.5c0.8,0,1.3,0.4,1.3,1.5v4.1c0,1-0.5,1.7-1.7,1.7
			c-1.2,0-1.7-0.7-1.7-1.7v-1.6h1v1.6c0,0.6,0.1,0.9,0.7,0.9c0.5,0,0.7-0.4,0.7-0.9v-3.9c0-0.6-0.1-0.9-0.7-0.9
			c-0.5,0-0.7,0.4-0.7,0.9v0.5h-1V132.3z"/>
		<path class="st7" d="M131.8,132.2h0.8V144h-0.8V132.2z"/>
		<path class="st6" d="M137,132.3h3.2v0.9H138v3.9h0c0.2-0.3,0.6-0.5,1-0.5c0.8,0,1.3,0.4,1.3,1.5v4.1c0,1-0.5,1.7-1.7,1.7
			c-1.2,0-1.7-0.7-1.7-1.7v-1.6h1v1.6c0,0.6,0.1,0.9,0.7,0.9c0.5,0,0.7-0.4,0.7-0.9v-3.9c0-0.6-0.1-0.9-0.7-0.9
			c-0.5,0-0.7,0.4-0.7,0.9v0.5h-1V132.3z"/>
		<path class="st6" d="M141.4,133.9c0-1.5,0.9-1.7,1.6-1.7c0.7,0,1.7,0.3,1.7,1.7v8.3c0,1.5-0.9,1.7-1.7,1.7c-0.7,0-1.6-0.3-1.6-1.7
			V133.9z M143.7,133.8c0-0.3,0-0.8-0.7-0.8c-0.7,0-0.7,0.5-0.7,0.8v8.6c0,0.3,0,0.8,0.7,0.8c0.7,0,0.7-0.5,0.7-0.8V133.8z"/>
		<path class="st6" d="M148.2,135.1h0.9v0.6h0c0.3-0.4,0.6-0.7,1.2-0.7c0.4,0,0.7,0.2,0.9,0.5c0.3-0.3,0.6-0.5,1-0.5
			c0.8,0,1.2,0.6,1.2,1.3v7.5h-1v-7.2c0-0.5-0.1-0.8-0.5-0.8c-0.4,0-0.6,0.4-0.6,0.8v7.1h-1v-7.2c0-0.5-0.1-0.8-0.5-0.8
			c-0.4,0-0.6,0.4-0.6,0.8v7.1h-1V135.1z"/>
		<path class="st6" d="M157.1,135.1h0.9v8.7c0,1.2-0.6,1.8-1.7,1.8c-0.7,0-1.5-0.4-1.5-1.4v-0.3h1v0.3c0,0.5,0.3,0.8,0.6,0.8
			c0.4,0,0.6-0.3,0.6-0.8v-1.2h0c-0.3,0.3-0.6,0.5-1,0.5c-0.6,0-1.2-0.4-1.2-1.5v-5.5c0-0.8,0.4-1.4,1.3-1.4c0.5,0,0.9,0.3,1.1,0.7
			h0V135.1z M157,136.6c0-0.5-0.4-0.7-0.8-0.7c-0.4,0-0.6,0.3-0.6,0.9v5.1c0,0.3,0.2,0.7,0.6,0.7c0.5,0,0.7-0.4,0.7-1V136.6z"/>
		<path class="st6" d="M163.8,141.1h1v1.2c0,1.3-0.8,1.7-1.7,1.7c-0.8,0-1.7-0.4-1.7-1.7v-5.6c0-1.3,0.8-1.7,1.7-1.7
			c0.8,0,1.7,0.4,1.7,1.7v3h-2.3v2.5c0,0.6,0.3,0.9,0.7,0.9c0.4,0,0.7-0.2,0.7-0.9V141.1z M163.8,136.7c0-0.6-0.3-0.9-0.7-0.9
			c-0.4,0-0.7,0.2-0.7,0.9v2.1h1.3V136.7z"/>
		<path class="st6" d="M167.1,139.4l-1.2-4.2h1l0.6,2.6h0l0.6-2.6h1l-1.2,4.2l1.3,4.5h-1l-0.8-3.1h0l-0.8,3.1h-1L167.1,139.4z"/>
		<path class="st6" d="M170.4,134l1-0.4v1.6h0.7v0.8h-0.7v6.6c0,0.4,0.2,0.5,0.5,0.5h0.2v0.8h-0.5c-0.8,0-1.2-0.4-1.2-1.1v-6.9h-0.5
			v-0.8h0.5V134z"/>
		<path class="st6" d="M175.3,141.1h1v1.2c0,1.3-0.8,1.7-1.7,1.7s-1.7-0.4-1.7-1.7v-5.6c0-1.3,0.8-1.7,1.7-1.7s1.7,0.4,1.7,1.7v3
			H174v2.5c0,0.6,0.3,0.9,0.7,0.9s0.7-0.2,0.7-0.9V141.1z M175.3,136.7c0-0.6-0.3-0.9-0.7-0.9s-0.7,0.2-0.7,0.9v2.1h1.3V136.7z"/>
		<path class="st6" d="M177.5,135.1h0.9v0.6h0c0.2-0.4,0.6-0.7,1.2-0.7c0.8,0,1.2,0.6,1.2,1.3v7.5h-1v-7.1c0-0.5-0.2-0.8-0.6-0.8
			c-0.5,0-0.7,0.4-0.7,0.8v7.1h-1V135.1z"/>
		<path class="st6" d="M184.4,143.3L184.4,143.3c-0.3,0.3-0.5,0.6-1.1,0.6c-0.6,0-1.3-0.4-1.3-1.7v-5.9c0-0.8,0.4-1.4,1.1-1.4
			c0.5,0,0.9,0.2,1.1,0.6h0v-3.4h1v11.6h-0.9V143.3z M184.3,136.9c0-0.5-0.3-1-0.7-1c-0.4,0-0.6,0.4-0.6,1v5.3
			c0,0.6,0.2,0.9,0.6,0.9c0.4,0,0.7-0.3,0.7-1V136.9z"/>
		<path class="st6" d="M188.8,141.1h1v1.2c0,1.3-0.8,1.7-1.7,1.7c-0.8,0-1.7-0.4-1.7-1.7v-5.6c0-1.3,0.8-1.7,1.7-1.7
			c0.8,0,1.7,0.4,1.7,1.7v3h-2.3v2.5c0,0.6,0.3,0.9,0.7,0.9c0.4,0,0.7-0.2,0.7-0.9V141.1z M188.8,136.7c0-0.6-0.3-0.9-0.7-0.9
			c-0.4,0-0.7,0.2-0.7,0.9v2.1h1.3V136.7z"/>
		<path class="st6" d="M193.4,143.3L193.4,143.3c-0.3,0.3-0.5,0.6-1.1,0.6c-0.6,0-1.3-0.4-1.3-1.7v-5.9c0-0.8,0.4-1.4,1.1-1.4
			c0.5,0,0.9,0.2,1.1,0.6h0v-3.4h1v11.6h-0.9V143.3z M193.4,136.9c0-0.5-0.3-1-0.7-1c-0.4,0-0.6,0.4-0.6,1v5.3
			c0,0.6,0.2,0.9,0.6,0.9c0.4,0,0.7-0.3,0.7-1V136.9z"/>
		<path class="st6" d="M195.4,138.6h1.9v0.9h-1.9V138.6z"/>
		<path class="st6" d="M198.3,135.1h0.9v0.6h0c0.3-0.5,0.7-0.7,1.3-0.7v1c-1,0-1.3,0.4-1.3,1.3v6.6h-1V135.1z"/>
		<path class="st6" d="M203.6,141.1h1v1.2c0,1.3-0.8,1.7-1.7,1.7c-0.8,0-1.7-0.4-1.7-1.7v-5.6c0-1.3,0.8-1.7,1.7-1.7
			c0.8,0,1.7,0.4,1.7,1.7v3h-2.3v2.5c0,0.6,0.3,0.9,0.7,0.9c0.4,0,0.7-0.2,0.7-0.9V141.1z M203.6,136.7c0-0.6-0.3-0.9-0.7-0.9
			c-0.4,0-0.7,0.2-0.7,0.9v2.1h1.3V136.7z"/>
		<path class="st6" d="M206,132.3h1v11.6h-1V132.3z"/>
		<path class="st6" d="M210.6,141.1h1v1.2c0,1.3-0.8,1.7-1.7,1.7s-1.7-0.4-1.7-1.7v-5.6c0-1.3,0.8-1.7,1.7-1.7s1.7,0.4,1.7,1.7v3
			h-2.3v2.5c0,0.6,0.3,0.9,0.7,0.9s0.7-0.2,0.7-0.9V141.1z M210.6,136.7c0-0.6-0.3-0.9-0.7-0.9s-0.7,0.2-0.7,0.9v2.1h1.3V136.7z"/>
		<path class="st6" d="M215.1,136.6c0-0.5-0.2-0.7-0.6-0.7c-0.6,0-0.6,0.3-0.6,0.8v0.8h-1v-1c0-0.9,0.8-1.4,1.7-1.4
			c1,0,1.5,0.4,1.5,1.5v7.3h-0.9v-0.5h0c-0.3,0.3-0.6,0.6-1.2,0.6c-0.8,0-1.2-0.6-1.2-1.4v-2.4c0-1.1,0.7-1.7,2.3-1.7V136.6z
			 M215.1,139.3c-0.5,0-1.3,0.2-1.3,0.9v2c0,0.6,0.1,1,0.6,1c0.4,0,0.7-0.3,0.7-0.9V139.3z"/>
		<path class="st6" d="M219.4,136.4c0-0.4-0.2-0.6-0.5-0.6c-0.4,0-0.5,0.3-0.5,0.6v1c0,0.3,0.1,0.5,0.4,0.9l1.2,1.7
			c0.2,0.3,0.4,0.6,0.4,1v1.5c0,0.9-0.5,1.5-1.5,1.5c-0.8,0-1.5-0.4-1.5-1.4v-1.5h1v1.3c0,0.4,0.1,0.7,0.5,0.7
			c0.4,0,0.5-0.4,0.5-0.8v-1.1c0-0.3-0.1-0.6-0.4-1l-1.1-1.6c-0.3-0.4-0.5-0.7-0.5-1.2v-1.1c0-1,0.7-1.5,1.6-1.5
			c1.1,0,1.4,0.7,1.4,1.3v1.4h-0.9V136.4z"/>
		<path class="st6" d="M223.9,141.1h1v1.2c0,1.3-0.8,1.7-1.7,1.7c-0.8,0-1.7-0.4-1.7-1.7v-5.6c0-1.3,0.8-1.7,1.7-1.7
			c0.8,0,1.7,0.4,1.7,1.7v3h-2.3v2.5c0,0.6,0.3,0.9,0.7,0.9c0.4,0,0.7-0.2,0.7-0.9V141.1z M223.9,136.7c0-0.6-0.3-0.9-0.7-0.9
			c-0.4,0-0.7,0.2-0.7,0.9v2.1h1.3V136.7z"/>
		<path class="st6" d="M230.3,136.6c0-0.5-0.1-0.7-0.5-0.7c-0.3,0-0.5,0.2-0.5,0.7v5.9c0,0.4,0.1,0.7,0.5,0.7c0.4,0,0.5-0.3,0.5-0.7
			v-1.4h1v1.4c0,0.9-0.5,1.5-1.5,1.5c-0.8,0-1.5-0.4-1.5-1.3v-5.9c0-1.3,0.8-1.7,1.7-1.7c0.9,0,1.3,0.5,1.3,1.4v1.5h-1V136.6z"/>
		<path class="st6" d="M234.9,136.6c0-0.5-0.2-0.7-0.6-0.7c-0.6,0-0.6,0.3-0.6,0.8v0.8h-1v-1c0-0.9,0.8-1.4,1.7-1.4
			c1,0,1.5,0.4,1.5,1.5v7.3h-0.9v-0.5h0c-0.3,0.3-0.6,0.6-1.2,0.6c-0.8,0-1.2-0.6-1.2-1.4v-2.4c0-1.1,0.7-1.7,2.3-1.7V136.6z
			 M234.9,139.3c-0.5,0-1.3,0.2-1.3,0.9v2c0,0.6,0.1,1,0.6,1c0.4,0,0.7-0.3,0.7-0.9V139.3z"/>
		<path class="st6" d="M237.1,135.1h0.9v0.5h0c0.2-0.4,0.5-0.6,1.1-0.6c0.6,0,1.3,0.4,1.3,1.7v5.9c0,0.8-0.4,1.4-1.1,1.4
			c-0.5,0-0.9-0.2-1.1-0.6h0v2.3h-1V135.1z M239.4,136.8c0-0.6-0.2-0.9-0.6-0.9c-0.4,0-0.7,0.3-0.7,1v5.3c0,0.5,0.3,1,0.7,1
			c0.4,0,0.6-0.4,0.6-1V136.8z"/>
		<path class="st6" d="M243.6,136.4c0-0.4-0.2-0.6-0.5-0.6c-0.4,0-0.5,0.3-0.5,0.6v1c0,0.3,0.1,0.5,0.4,0.9l1.2,1.7
			c0.2,0.3,0.4,0.6,0.4,1v1.5c0,0.9-0.5,1.5-1.5,1.5c-0.8,0-1.5-0.4-1.5-1.4v-1.5h1v1.3c0,0.4,0.1,0.7,0.5,0.7
			c0.4,0,0.5-0.4,0.5-0.8v-1.1c0-0.3-0.1-0.6-0.4-1l-1.1-1.6c-0.3-0.4-0.5-0.7-0.5-1.2v-1.1c0-1,0.7-1.5,1.6-1.5
			c1.1,0,1.4,0.7,1.4,1.3v1.4h-0.9V136.4z"/>
		<path class="st6" d="M249.1,143.9h-0.9v-0.6h0c-0.2,0.4-0.6,0.7-1.2,0.7c-0.8,0-1.2-0.6-1.2-1.3v-7.5h1v7.1c0,0.5,0.2,0.8,0.6,0.8
			c0.5,0,0.7-0.4,0.7-0.8v-7.1h1V143.9z"/>
		<path class="st6" d="M250.4,132.3h1v11.6h-1V132.3z"/>
		<path class="st6" d="M255.1,141.1h1v1.2c0,1.3-0.8,1.7-1.7,1.7c-0.8,0-1.7-0.4-1.7-1.7v-5.6c0-1.3,0.8-1.7,1.7-1.7
			c0.8,0,1.7,0.4,1.7,1.7v3h-2.3v2.5c0,0.6,0.3,0.9,0.7,0.9c0.4,0,0.7-0.2,0.7-0.9V141.1z M255.1,136.7c0-0.6-0.3-0.9-0.7-0.9
			c-0.4,0-0.7,0.2-0.7,0.9v2.1h1.3V136.7z"/>
		<path class="st6" d="M259.3,136.4c0-0.4-0.2-0.6-0.5-0.6c-0.4,0-0.5,0.3-0.5,0.6v1c0,0.3,0.1,0.5,0.4,0.9l1.2,1.7
			c0.2,0.3,0.4,0.6,0.4,1v1.5c0,0.9-0.5,1.5-1.5,1.5c-0.8,0-1.5-0.4-1.5-1.4v-1.5h1v1.3c0,0.4,0.1,0.7,0.5,0.7
			c0.4,0,0.5-0.4,0.5-0.8v-1.1c0-0.3-0.1-0.6-0.4-1l-1.1-1.6c-0.3-0.4-0.5-0.7-0.5-1.2v-1.1c0-1,0.7-1.5,1.6-1.5
			c1.1,0,1.4,0.7,1.4,1.3v1.4h-0.9V136.4z"/>
	</g>
</g>
<g>
	<g>
		<path class="st3" d="M88.9,79.3c-0.7,2.8-1.4,6.6-1.4,10.4c0,3.5,0.4,7.4,1.3,10.4h-1.2c-1.1-3.1-1.6-6.9-1.6-10.4
			c0-4.3,0.7-8,1.7-10.4H88.9z"/>
		<path class="st3" d="M90.6,84H92v0.9h0c0.5-0.7,1-1.1,1.8-1.1c0.6,0,1.1,0.3,1.4,0.8c0.4-0.5,0.9-0.8,1.6-0.8c1.3,0,1.8,0.9,1.8,2
			v11.6h-1.5V86.4c0-0.7-0.2-1.2-0.8-1.2c-0.6,0-1,0.6-1,1.2v11h-1.5V86.4c0-0.7-0.2-1.2-0.8-1.2c-0.6,0-1,0.6-1,1.2v11h-1.5V84z"/>
		<path class="st3" d="M100.9,79.6h1.6v1.9h-1.6V79.6z M101,84h1.5v13.5H101V84z"/>
		<path class="st3" d="M106.3,90.6l-1.8-6.5h1.5l1,4h0l1-4h1.5l-1.8,6.5l2,7h-1.5l-1.2-4.8h0l-1.2,4.8h-1.5L106.3,90.6z"/>
		<path class="st3" d="M114.9,93.2h1.5v1.9c0,2.1-1.2,2.6-2.6,2.6c-1.3,0-2.6-0.5-2.6-2.6v-8.6c0-2.1,1.2-2.6,2.6-2.6
			c1.3,0,2.6,0.5,2.6,2.6v4.7h-3.6v3.9c0,1,0.4,1.4,1,1.4c0.6,0,1-0.4,1-1.4V93.2z M114.9,86.5c0-1-0.4-1.4-1-1.4
			c-0.6,0-1,0.4-1,1.4v3.3h2V86.5z"/>
		<path class="st3" d="M122.2,96.7L122.2,96.7c-0.4,0.5-0.8,1-1.7,1c-1,0-2-0.6-2-2.6V86c0-1.2,0.7-2.1,1.8-2.1c0.8,0,1.4,0.3,1.8,1
			h0v-5.2h1.5v17.9h-1.4V96.7z M122.1,86.8c0-0.8-0.4-1.5-1.1-1.5c-0.6,0-0.9,0.6-0.9,1.6V95c0,0.9,0.3,1.4,0.9,1.4
			c0.6,0,1.1-0.4,1.1-1.5V86.8z"/>
		<path class="st3" d="M132.5,86c0-0.6-0.3-0.9-0.8-0.9c-0.6,0-0.8,0.4-0.8,1v1.5c0,0.4,0.2,0.8,0.6,1.3l1.9,2.7
			c0.4,0.5,0.5,0.9,0.5,1.5v2.3c0,1.5-0.8,2.3-2.3,2.3c-1.3,0-2.3-0.6-2.3-2.1v-2.4h1.5v2.1c0,0.6,0.1,1.1,0.8,1.1
			c0.6,0,0.7-0.5,0.7-1.2v-1.6c0-0.5-0.2-1-0.6-1.5l-1.8-2.4c-0.4-0.6-0.7-1.1-0.7-1.8v-1.7c0-1.5,1-2.3,2.4-2.3
			c1.6,0,2.2,1.1,2.2,1.9V88h-1.4V86z"/>
		<path class="st3" d="M139.6,86.3c0-0.8-0.3-1.1-0.9-1.1c-0.9,0-1,0.5-1,1.3v1.3h-1.5v-1.6c0-1.4,1.2-2.2,2.6-2.2
			c1.5,0,2.4,0.6,2.4,2.4v11.3h-1.4v-0.7h0c-0.4,0.5-0.9,0.9-1.8,0.9c-1.2,0-1.8-0.9-1.8-2.2v-3.7c0-1.7,1.1-2.6,3.6-2.6V86.3z
			 M139.6,90.4c-0.8,0-2,0.3-2,1.5V95c0,1,0.1,1.5,1,1.5c0.7,0,1.1-0.5,1.1-1.4V90.4z"/>
		<path class="st3" d="M143.3,79.6h1.5v17.9h-1.5V79.6z"/>
		<path class="st3" d="M147.3,82.2l1.5-0.6V84h1.1v1.2h-1.1v10.3c0,0.6,0.3,0.8,0.8,0.8h0.3v1.2h-0.7c-1.3,0-1.9-0.6-1.9-1.7V85.3
			h-0.8V84h0.8V82.2z"/>
		<path class="st3" d="M154.6,86c0-0.6-0.3-0.9-0.8-0.9c-0.6,0-0.8,0.4-0.8,1v1.5c0,0.4,0.2,0.8,0.6,1.3l1.9,2.7
			c0.4,0.5,0.5,0.9,0.5,1.5v2.3c0,1.5-0.8,2.3-2.3,2.3c-1.3,0-2.3-0.6-2.3-2.1v-2.4h1.5v2.1c0,0.6,0.1,1.1,0.8,1.1
			c0.6,0,0.7-0.5,0.7-1.2v-1.6c0-0.5-0.2-1-0.6-1.5l-1.8-2.4c-0.4-0.6-0.7-1.1-0.7-1.8v-1.7c0-1.5,1-2.3,2.4-2.3
			c1.6,0,2.2,1.1,2.2,1.9V88h-1.4V86z"/>
		<path class="st3" d="M161.8,86.5c0-2.1,1.2-2.6,2.6-2.6c1.3,0,2.6,0.5,2.6,2.6v8.6c0,2.1-1.2,2.6-2.6,2.6c-1.3,0-2.6-0.5-2.6-2.6
			V86.5z M165.4,86.5c0-1-0.4-1.4-1-1.4c-0.6,0-1,0.4-1,1.4v8.6c0,1,0.4,1.4,1,1.4c0.6,0,1-0.4,1-1.4V86.5z"/>
		<path class="st3" d="M169.2,81.5c0-1.2,0.4-2.1,1.9-2.1h0.7v1.2h-0.3c-0.5,0-0.8,0.2-0.8,1V84h1.1v1.2h-1.1v12.3h-1.5V85.3h-0.8
			V84h0.8V81.5z"/>
		<path class="st3" d="M180.6,86.3c0-0.8-0.3-1.1-0.9-1.1c-0.9,0-1,0.5-1,1.3v1.3h-1.5v-1.6c0-1.4,1.2-2.2,2.6-2.2
			c1.5,0,2.4,0.6,2.4,2.4v11.3h-1.4v-0.7h0c-0.4,0.5-0.9,0.9-1.8,0.9c-1.2,0-1.8-0.9-1.8-2.2v-3.7c0-1.7,1.1-2.6,3.6-2.6V86.3z
			 M180.6,90.4c-0.8,0-2,0.3-2,1.5V95c0,1,0.1,1.5,1,1.5c0.7,0,1.1-0.5,1.1-1.4V90.4z"/>
		<path class="st3" d="M191,86c0-0.6-0.3-0.9-0.8-0.9c-0.6,0-0.8,0.4-0.8,1v1.5c0,0.4,0.2,0.8,0.6,1.3l1.9,2.7
			c0.4,0.5,0.5,0.9,0.5,1.5v2.3c0,1.5-0.8,2.3-2.3,2.3c-1.3,0-2.3-0.6-2.3-2.1v-2.4h1.5v2.1c0,0.6,0.1,1.1,0.8,1.1
			c0.6,0,0.7-0.5,0.7-1.2v-1.6c0-0.5-0.2-1-0.6-1.5l-1.8-2.4c-0.4-0.6-0.7-1.1-0.7-1.8v-1.7c0-1.5,1-2.3,2.4-2.3
			c1.6,0,2.2,1.1,2.2,1.9V88H191V86z"/>
		<path class="st3" d="M194.6,79.6h1.6v1.9h-1.6V79.6z M194.6,84h1.5v13.5h-1.5V84z"/>
		<path class="st3" d="M198.4,84h1.4v0.9h0c0.3-0.6,1-1.1,1.8-1.1c1.3,0,1.8,0.9,1.8,2v11.6H202v-11c0-0.7-0.3-1.2-1-1.2
			c-0.7,0-1.1,0.7-1.1,1.2v11h-1.5V84z"/>
		<path class="st3" d="M209.2,84h1.4v13.4c0,1.8-0.9,2.8-2.7,2.8c-1.1,0-2.4-0.6-2.4-2.2v-0.5h1.5V98c0,0.8,0.4,1.2,1,1.2
			c0.6,0,1-0.5,1-1.2v-1.8h0c-0.4,0.5-1,0.8-1.6,0.8c-0.9,0-1.9-0.6-1.9-2.3V86c0-1.2,0.7-2.1,1.9-2.1c0.8,0,1.4,0.5,1.7,1h0V84z
			 M209.1,86.4c0-0.8-0.6-1.1-1.2-1.1c-0.5,0-0.9,0.4-0.9,1.3v7.9c0,0.5,0.2,1.1,0.9,1.1c0.8,0,1.1-0.6,1.1-1.5V86.4z"/>
		<path class="st3" d="M212.8,79.6h1.5v17.9h-1.5V79.6z"/>
		<path class="st3" d="M220.2,93.2h1.5v1.9c0,2.1-1.2,2.6-2.6,2.6c-1.3,0-2.6-0.5-2.6-2.6v-8.6c0-2.1,1.2-2.6,2.6-2.6
			c1.3,0,2.6,0.5,2.6,2.6v4.7h-3.6v3.9c0,1,0.4,1.4,1,1.4c0.6,0,1-0.4,1-1.4V93.2z M220.2,86.5c0-1-0.4-1.4-1-1.4
			c-0.6,0-1,0.4-1,1.4v3.3h2V86.5z"/>
		<path class="st3" d="M223.4,89.4h3v1.4h-3V89.4z"/>
		<path class="st3" d="M231.7,93.2h1.5v1.9c0,2.1-1.2,2.6-2.6,2.6c-1.3,0-2.6-0.5-2.6-2.6v-8.6c0-2.1,1.2-2.6,2.6-2.6
			c1.3,0,2.6,0.5,2.6,2.6v4.7h-3.6v3.9c0,1,0.4,1.4,1,1.4c0.6,0,1-0.4,1-1.4V93.2z M231.7,86.5c0-1-0.4-1.4-1-1.4
			c-0.6,0-1,0.4-1,1.4v3.3h2V86.5z"/>
		<path class="st3" d="M235.2,84h1.4v0.9h0c0.3-0.6,1-1.1,1.8-1.1c1.3,0,1.8,0.9,1.8,2v11.6h-1.5v-11c0-0.7-0.3-1.2-1-1.2
			c-0.7,0-1.1,0.7-1.1,1.2v11h-1.5V84z"/>
		<path class="st3" d="M242.6,82.2l1.5-0.6V84h1.1v1.2h-1.1v10.3c0,0.6,0.3,0.8,0.8,0.8h0.3v1.2h-0.7c-1.3,0-1.9-0.6-1.9-1.7V85.3
			h-0.8V84h0.8V82.2z"/>
		<path class="st3" d="M246.9,79.6h1.6v1.9h-1.6V79.6z M247,84h1.5v13.5H247V84z"/>
		<path class="st3" d="M250.9,82.2l1.5-0.6V84h1.1v1.2h-1.1v10.3c0,0.6,0.3,0.8,0.8,0.8h0.3v1.2h-0.7c-1.3,0-1.9-0.6-1.9-1.7V85.3
			h-0.8V84h0.8V82.2z"/>
		<path class="st3" d="M257.6,100.2h-1.5l0.5-2.7l-2-13.5h1.5l1.1,9.1h0l1.3-9.1h1.5L257.6,100.2z"/>
		<path class="st3" d="M133.8,109.5c0-0.8-0.3-1.1-0.9-1.1c-0.9,0-1,0.5-1,1.3v1.3h-1.5v-1.6c0-1.4,1.2-2.2,2.6-2.2
			c1.5,0,2.4,0.6,2.4,2.4v11.3h-1.4v-0.7h0c-0.4,0.5-0.9,0.9-1.8,0.9c-1.2,0-1.8-0.9-1.8-2.2V115c0-1.7,1.1-2.6,3.6-2.6V109.5z
			 M133.8,113.7c-0.8,0-2,0.3-2,1.5v3.1c0,1,0.1,1.5,1,1.5c0.7,0,1.1-0.5,1.1-1.4V113.7z"/>
		<path class="st3" d="M137.5,107.3h1.4v0.9h0c0.5-0.7,1-1.1,1.8-1.1c0.6,0,1.1,0.3,1.4,0.8c0.4-0.5,0.9-0.8,1.6-0.8
			c1.3,0,1.8,0.9,1.8,2v11.6h-1.5v-11.1c0-0.7-0.2-1.2-0.8-1.2c-0.6,0-1,0.6-1,1.2v11h-1.5v-11.1c0-0.7-0.2-1.2-0.8-1.2
			c-0.6,0-1,0.6-1,1.2v11h-1.5V107.3z"/>
		<path class="st3" d="M147.7,107.3h1.4v0.8h0c0.2-0.6,0.8-1,1.6-1c1,0,2,0.6,2,2.6v9.1c0,1.2-0.7,2.1-1.8,2.1c-0.8,0-1.4-0.4-1.8-1
			h0v3.5h-1.5V107.3z M151.3,109.8c0-0.9-0.3-1.4-0.9-1.4c-0.6,0-1.1,0.4-1.1,1.5v8.2c0,0.8,0.4,1.5,1.1,1.5c0.6,0,0.9-0.6,0.9-1.6
			V109.8z"/>
		<path class="st3" d="M154.9,102.9h1.5v5.3h0c0.3-0.6,0.9-1.1,1.7-1.1c1.2,0,1.8,0.9,1.8,2v11.6h-1.5v-11c0-0.7-0.3-1.2-1-1.2
			c-0.7,0-1.1,0.7-1.1,1.2v11h-1.5V102.9z"/>
		<path class="st3" d="M165.6,116.4h1.5v1.9c0,2.1-1.2,2.6-2.6,2.6c-1.3,0-2.6-0.5-2.6-2.6v-8.6c0-2.1,1.2-2.6,2.6-2.6
			c1.3,0,2.6,0.5,2.6,2.6v4.7h-3.6v3.9c0,1,0.4,1.4,1,1.4c0.6,0,1-0.4,1-1.4V116.4z M165.6,109.7c0-1-0.4-1.4-1-1.4
			c-0.6,0-1,0.4-1,1.4v3.3h2V109.7z"/>
		<path class="st3" d="M169.4,105.5l1.5-0.6v2.4h1.1v1.2h-1.1v10.3c0,0.6,0.3,0.8,0.8,0.8h0.3v1.2h-0.7c-1.3,0-1.9-0.6-1.9-1.7
			v-10.6h-0.8v-1.2h0.8V105.5z"/>
		<path class="st3" d="M177.1,109.5c0-0.8-0.3-1.1-0.9-1.1c-0.9,0-1,0.5-1,1.3v1.3h-1.5v-1.6c0-1.4,1.2-2.2,2.6-2.2
			c1.5,0,2.4,0.6,2.4,2.4v11.3h-1.4v-0.7h0c-0.4,0.5-0.9,0.9-1.8,0.9c-1.2,0-1.8-0.9-1.8-2.2V115c0-1.7,1.1-2.6,3.6-2.6V109.5z
			 M177.1,113.7c-0.8,0-2,0.3-2,1.5v3.1c0,1,0.1,1.5,1,1.5c0.7,0,1.1-0.5,1.1-1.4V113.7z"/>
		<path class="st3" d="M180.8,107.3h1.4v0.9h0c0.5-0.7,1-1.1,1.8-1.1c0.6,0,1.1,0.3,1.4,0.8c0.4-0.5,0.9-0.8,1.6-0.8
			c1.3,0,1.8,0.9,1.8,2v11.6h-1.5v-11.1c0-0.7-0.2-1.2-0.8-1.2c-0.6,0-1,0.6-1,1.2v11h-1.5v-11.1c0-0.7-0.2-1.2-0.8-1.2
			c-0.6,0-1,0.6-1,1.2v11h-1.5V107.3z"/>
		<path class="st3" d="M191.1,102.9h1.6v1.9h-1.6V102.9z M191.2,107.3h1.5v13.5h-1.5V107.3z"/>
		<path class="st3" d="M194.9,107.3h1.4v0.9h0c0.3-0.6,1-1.1,1.8-1.1c1.3,0,1.8,0.9,1.8,2v11.6h-1.5v-11c0-0.7-0.3-1.2-1-1.2
			c-0.7,0-1.1,0.7-1.1,1.2v11h-1.5V107.3z"/>
		<path class="st3" d="M205.6,116.4h1.5v1.9c0,2.1-1.2,2.6-2.6,2.6c-1.3,0-2.6-0.5-2.6-2.6v-8.6c0-2.1,1.2-2.6,2.6-2.6
			c1.3,0,2.6,0.5,2.6,2.6v4.7h-3.6v3.9c0,1,0.4,1.4,1,1.4c0.6,0,1-0.4,1-1.4V116.4z M205.6,109.7c0-1-0.4-1.4-1-1.4
			c-0.6,0-1,0.4-1,1.4v3.3h2V109.7z"/>
		<path class="st3" d="M212.9,107.3h1.4v0.8h0c0.2-0.6,0.8-1,1.6-1c1,0,2,0.6,2,2.6v9.1c0,1.2-0.7,2.1-1.8,2.1c-0.8,0-1.4-0.4-1.8-1
			h0v3.5h-1.5V107.3z M216.4,109.8c0-0.9-0.3-1.4-0.9-1.4c-0.6,0-1.1,0.4-1.1,1.5v8.2c0,0.8,0.4,1.5,1.1,1.5c0.6,0,0.9-0.6,0.9-1.6
			V109.8z"/>
		<path class="st3" d="M220,107.3h1.4v0.9h0c0.5-0.7,1.1-1.1,2.1-1.1v1.5c-1.5,0-2,0.6-2,2v10.1H220V107.3z"/>
		<path class="st3" d="M224.9,109.7c0-2.1,1.2-2.6,2.6-2.6c1.3,0,2.6,0.5,2.6,2.6v8.6c0,2.1-1.2,2.6-2.6,2.6c-1.3,0-2.6-0.5-2.6-2.6
			V109.7z M228.4,109.7c0-1-0.4-1.4-1-1.4c-0.6,0-1,0.4-1,1.4v8.6c0,1,0.4,1.4,1,1.4c0.6,0,1-0.4,1-1.4V109.7z"/>
		<path class="st3" d="M235.7,119.9L235.7,119.9c-0.4,0.5-0.8,1-1.7,1c-1,0-2-0.6-2-2.6v-9.1c0-1.2,0.7-2.1,1.8-2.1
			c0.8,0,1.4,0.3,1.8,1h0v-5.2h1.5v17.9h-1.4V119.9z M235.6,110c0-0.8-0.4-1.5-1.1-1.5c-0.6,0-0.9,0.6-0.9,1.6v8.2
			c0,0.9,0.3,1.4,0.9,1.4c0.6,0,1.1-0.4,1.1-1.5V110z"/>
		<path class="st3" d="M244.3,120.8h-1.4v-0.9h0c-0.3,0.6-1,1.1-1.8,1.1c-1.3,0-1.8-0.9-1.8-2v-11.6h1.5v11c0,0.7,0.3,1.2,1,1.2
			c0.7,0,1.1-0.7,1.1-1.2v-11h1.5V120.8z"/>
		<path class="st3" d="M249.4,109.5c0-0.8-0.2-1.1-0.7-1.1c-0.5,0-0.8,0.3-0.8,1.1v9.2c0,0.7,0.2,1,0.8,1c0.6,0,0.8-0.4,0.8-1v-2.2
			h1.5v2.2c0,1.5-0.8,2.3-2.3,2.3c-1.2,0-2.3-0.6-2.3-2v-9.2c0-2.1,1.2-2.6,2.6-2.6c1.3,0,2.1,0.7,2.1,2.2v2.3h-1.5V109.5z"/>
		<path class="st3" d="M253.2,105.5l1.5-0.6v2.4h1.1v1.2h-1.1v10.3c0,0.6,0.3,0.8,0.8,0.8h0.3v1.2h-0.7c-1.3,0-1.9-0.6-1.9-1.7
			v-10.6h-0.8v-1.2h0.8V105.5z"/>
		<path class="st3" d="M256.9,123.5c0.7-2.8,1.4-6.6,1.4-10.4c0-3.5-0.4-7.4-1.3-10.4h1.2c1.1,3.1,1.6,6.9,1.6,10.4
			c0,4.3-0.7,8-1.7,10.4H256.9z"/>
	</g>
</g>
</svg>
